# Blender v2.79 (sub 0) OBJ File: ''
# www.blender.org
mtllib colliders.mtl
o Plane_Plane.001
v 4.443236 0.579435 3.580647
v 4.443236 -0.071609 3.580647
v 4.443236 0.579435 -4.161211
v 4.443236 -0.071609 -4.161211
v 4.869802 0.579435 3.580647
v 4.869802 -0.071609 3.580647
v 4.869802 0.579435 -4.161211
v 4.869802 -0.071609 -4.161211
v 4.459847 0.579435 -5.257276
v 4.459847 -0.071609 -5.257276
v 4.853190 0.579435 -5.422320
v 4.853190 -0.071609 -5.422320
v 4.152650 -0.071609 -6.056454
v 4.152650 0.579434 -6.056453
v 4.419263 -0.071609 -6.389433
v 4.419263 0.579435 -6.389433
v 2.849111 -0.071609 -7.101209
v 2.849111 0.579434 -7.101208
v 3.085911 -0.071609 -7.456010
v 3.085911 0.579434 -7.456010
v 1.765386 -0.071608 -7.824502
v 1.765386 0.579435 -7.824502
v 2.002185 -0.071608 -8.179304
v 2.002185 0.579435 -8.179303
v 4.464134 0.579435 4.456349
v 4.464134 -0.071609 4.456349
v 4.848904 0.579435 4.272203
v 4.848904 -0.071609 4.272203
v 4.911049 0.579435 5.346931
v 4.911049 -0.071609 5.346931
v 5.186803 0.579435 5.021482
v 5.186803 -0.071609 5.021482
v 6.051450 0.579435 6.313195
v 6.051450 -0.071609 6.313195
v 6.327204 0.579435 5.987746
v 6.327204 -0.071609 5.987746
v 4.443236 -0.071608 3.580647
v 4.443236 0.579435 3.580647
v 4.443236 -0.071608 -4.161211
v 4.443236 0.579435 -4.161211
v 4.869802 -0.071608 3.580647
v 4.869802 0.579435 3.580647
v 4.869802 -0.071608 -4.161211
v 4.869802 0.579435 -4.161211
v 4.459847 -0.071608 -5.257276
v 4.459847 0.579435 -5.257276
v 4.853190 -0.071608 -5.422320
v 4.853190 0.579435 -5.422320
v 4.152650 0.579435 -6.056454
v 4.152650 -0.071608 -6.056453
v 4.419263 0.579435 -6.389433
v 4.419263 -0.071608 -6.389433
v 2.849111 0.579435 -7.101209
v 2.849111 -0.071608 -7.101208
v 3.085911 0.579435 -7.456010
v 3.085911 -0.071608 -7.456010
v 1.765386 0.579434 -7.824502
v 1.765386 -0.071609 -7.824502
v 2.002185 0.579434 -8.179304
v 2.002185 -0.071609 -8.179303
v 4.464134 -0.071608 4.456349
v 4.464134 0.579435 4.456349
v 4.848904 -0.071608 4.272203
v 4.848904 0.579435 4.272203
v 4.911049 -0.071608 5.346931
v 4.911049 0.579435 5.346931
v 5.186803 -0.071608 5.021482
v 5.186803 0.579435 5.021482
v 6.051450 -0.071608 6.313195
v 6.051450 0.579435 6.313195
v 6.327204 -0.071608 5.987746
v 6.327204 0.579435 5.987746
v -4.268073 0.579434 3.580647
v -4.268073 -0.071609 3.580647
v -4.268073 0.579434 -4.161211
v -4.268073 -0.071609 -4.161211
v -4.694638 0.579434 3.580647
v -4.694638 -0.071609 3.580647
v -4.694638 0.579434 -4.161211
v -4.694638 -0.071609 -4.161211
v -4.284684 0.579434 -5.257276
v -4.284684 -0.071609 -5.257276
v -4.678027 0.579434 -5.422320
v -4.678027 -0.071609 -5.422320
v -3.977487 -0.071609 -6.056454
v -3.977487 0.579434 -6.056453
v -4.244100 -0.071609 -6.389433
v -4.244100 0.579434 -6.389433
v -2.673948 -0.071609 -7.101209
v -2.673948 0.579434 -7.101208
v -2.910748 -0.071609 -7.456010
v -2.910748 0.579434 -7.456010
v -1.590222 -0.071608 -7.824502
v -1.590222 0.579435 -7.824502
v -1.827022 -0.071609 -8.179304
v -1.827022 0.579435 -8.179303
v -4.288970 0.579434 4.456349
v -4.288970 -0.071609 4.456349
v -4.673741 0.579434 4.272203
v -4.673741 -0.071609 4.272203
v -4.735886 0.579434 5.346931
v -4.735886 -0.071609 5.346931
v -5.011640 0.579434 5.021482
v -5.011640 -0.071609 5.021482
v -5.876287 0.579434 6.313195
v -5.876287 -0.071609 6.313195
v -6.152040 0.579434 5.987746
v -6.152040 -0.071609 5.987746
v -4.268073 -0.071609 3.580647
v -4.268073 0.579435 3.580647
v -4.268073 -0.071609 -4.161211
v -4.268073 0.579435 -4.161211
v -4.694638 -0.071609 3.580647
v -4.694638 0.579435 3.580647
v -4.694638 -0.071609 -4.161211
v -4.694638 0.579435 -4.161211
v -4.284684 -0.071609 -5.257276
v -4.284684 0.579435 -5.257276
v -4.678027 -0.071609 -5.422320
v -4.678027 0.579434 -5.422320
v -3.977487 0.579435 -6.056454
v -3.977487 -0.071609 -6.056453
v -4.244100 0.579435 -6.389433
v -4.244100 -0.071609 -6.389433
v -2.673948 0.579435 -7.101209
v -2.673948 -0.071609 -7.101208
v -2.910748 0.579435 -7.456010
v -2.910748 -0.071609 -7.456010
v -1.590222 0.579434 -7.824502
v -1.590222 -0.071609 -7.824502
v -1.827022 0.579434 -8.179304
v -1.827022 -0.071609 -8.179303
v -4.288970 -0.071609 4.456349
v -4.288970 0.579435 4.456349
v -4.673741 -0.071609 4.272203
v -4.673741 0.579435 4.272203
v -4.735886 -0.071609 5.346931
v -4.735886 0.579435 5.346931
v -5.011640 -0.071609 5.021482
v -5.011640 0.579435 5.021482
v -5.876287 -0.071609 6.313195
v -5.876287 0.579434 6.313195
v -6.152040 -0.071609 5.987746
v -6.152040 0.579434 5.987746
vn -1.0000 0.0000 0.0000
vn 1.0000 0.0000 0.0000
vn -0.9999 0.0000 -0.0152
vn 0.9995 0.0000 0.0302
vn 0.0000 -1.0000 0.0000
vn 0.0000 1.0000 0.0000
vn 0.9999 0.0000 -0.0132
vn -0.9334 0.0000 0.3588
vn 0.9124 0.0000 -0.4094
vn 0.6247 0.0000 -0.7809
vn -0.6254 -0.0000 0.7803
vn -0.8318 0.0000 -0.5551
vn -0.5551 -0.0000 0.8318
vn 0.5551 0.0000 -0.8318
vn -0.9997 0.0000 0.0239
vn 0.9116 0.0000 -0.4111
vn -0.8938 0.0000 0.4485
vn 0.7630 0.0000 0.6465
vn -0.6465 0.0000 0.7630
vn 0.6465 0.0000 -0.7630
vn 0.9999 0.0000 -0.0152
vn -0.9995 0.0000 0.0302
vn -0.9999 0.0000 -0.0132
vn 0.9334 -0.0000 0.3588
vn -0.9124 0.0000 -0.4094
vn -0.6247 0.0000 -0.7809
vn 0.6254 -0.0000 0.7803
vn 0.8318 0.0000 -0.5551
vn 0.5551 -0.0000 0.8318
vn -0.5551 0.0000 -0.8318
vn 0.9997 0.0000 0.0239
vn -0.9116 0.0000 -0.4111
vn 0.8938 0.0000 0.4485
vn -0.7630 0.0000 0.6465
vn 0.6465 0.0000 0.7630
vn -0.6465 0.0000 -0.7630
usemtl None
s off
f 1//1 3//1 4//1 2//1
f 5//2 6//2 8//2 7//2
f 4//3 3//3 9//3 10//3
f 6//4 5//4 27//4 28//4
f 2//5 4//5 8//5 6//5
f 3//6 1//6 5//6 7//6
f 9//6 11//6 16//6 14//6
f 3//6 7//6 11//6 9//6
f 8//5 4//5 10//5 12//5
f 7//7 8//7 12//7 11//7
f 15//5 13//5 17//5 19//5
f 10//8 9//8 14//8 13//8
f 12//5 10//5 13//5 15//5
f 11//9 12//9 15//9 16//9
f 18//6 20//6 24//6 22//6
f 16//10 15//10 19//10 20//10
f 14//6 16//6 20//6 18//6
f 13//11 14//11 18//11 17//11
f 21//12 22//12 24//12 23//12
f 17//13 18//13 22//13 21//13
f 19//5 17//5 21//5 23//5
f 20//14 19//14 23//14 24//14
f 27//6 25//6 29//6 31//6
f 1//15 2//15 26//15 25//15
f 2//5 6//5 28//5 26//5
f 5//6 1//6 25//6 27//6
f 30//5 32//5 36//5 34//5
f 28//16 27//16 31//16 32//16
f 26//5 28//5 32//5 30//5
f 25//17 26//17 30//17 29//17
f 33//18 34//18 36//18 35//18
f 29//19 30//19 34//19 33//19
f 31//6 29//6 33//6 35//6
f 32//20 31//20 35//20 36//20
f 37//1 38//1 40//1 39//1
f 41//2 43//2 44//2 42//2
f 40//3 46//3 45//3 39//3
f 42//4 64//4 63//4 41//4
f 38//6 42//6 44//6 40//6
f 39//5 43//5 41//5 37//5
f 45//5 50//5 52//5 47//5
f 39//5 45//5 47//5 43//5
f 44//6 48//6 46//6 40//6
f 43//7 47//7 48//7 44//7
f 51//6 55//6 53//6 49//6
f 46//8 49//8 50//8 45//8
f 48//6 51//6 49//6 46//6
f 47//9 52//9 51//9 48//9
f 54//5 58//5 60//5 56//5
f 52//10 56//10 55//10 51//10
f 50//5 54//5 56//5 52//5
f 49//11 53//11 54//11 50//11
f 57//12 59//12 60//12 58//12
f 53//13 57//13 58//13 54//13
f 55//6 59//6 57//6 53//6
f 56//14 60//14 59//14 55//14
f 63//5 67//5 65//5 61//5
f 37//15 61//15 62//15 38//15
f 38//6 62//6 64//6 42//6
f 41//5 63//5 61//5 37//5
f 66//6 70//6 72//6 68//6
f 64//16 68//16 67//16 63//16
f 62//6 66//6 68//6 64//6
f 61//17 65//17 66//17 62//17
f 69//18 71//18 72//18 70//18
f 65//19 69//19 70//19 66//19
f 67//5 71//5 69//5 65//5
f 68//20 72//20 71//20 67//20
f 73//2 74//2 76//2 75//2
f 77//1 79//1 80//1 78//1
f 76//21 82//21 81//21 75//21
f 78//22 100//22 99//22 77//22
f 74//5 78//5 80//5 76//5
f 75//6 79//6 77//6 73//6
f 81//6 86//6 88//6 83//6
f 75//6 81//6 83//6 79//6
f 80//5 84//5 82//5 76//5
f 79//23 83//23 84//23 80//23
f 87//5 91//5 89//5 85//5
f 82//24 85//24 86//24 81//24
f 84//5 87//5 85//5 82//5
f 83//25 88//25 87//25 84//25
f 90//6 94//6 96//6 92//6
f 88//26 92//26 91//26 87//26
f 86//6 90//6 92//6 88//6
f 85//27 89//27 90//27 86//27
f 93//28 95//28 96//28 94//28
f 89//29 93//29 94//29 90//29
f 91//5 95//5 93//5 89//5
f 92//30 96//30 95//30 91//30
f 99//6 103//6 101//6 97//6
f 73//31 97//31 98//31 74//31
f 74//5 98//5 100//5 78//5
f 77//6 99//6 97//6 73//6
f 102//5 106//5 108//5 104//5
f 100//32 104//32 103//32 99//32
f 98//5 102//5 104//5 100//5
f 97//33 101//33 102//33 98//33
f 105//34 107//34 108//34 106//34
f 101//35 105//35 106//35 102//35
f 103//6 107//6 105//6 101//6
f 104//36 108//36 107//36 103//36
f 109//2 111//2 112//2 110//2
f 113//1 114//1 116//1 115//1
f 112//21 111//21 117//21 118//21
f 114//22 113//22 135//22 136//22
f 110//6 112//6 116//6 114//6
f 111//5 109//5 113//5 115//5
f 117//5 119//5 124//5 122//5
f 111//5 115//5 119//5 117//5
f 116//6 112//6 118//6 120//6
f 115//23 116//23 120//23 119//23
f 123//6 121//6 125//6 127//6
f 118//24 117//24 122//24 121//24
f 120//6 118//6 121//6 123//6
f 119//25 120//25 123//25 124//25
f 126//5 128//5 132//5 130//5
f 124//26 123//26 127//26 128//26
f 122//5 124//5 128//5 126//5
f 121//27 122//27 126//27 125//27
f 129//28 130//28 132//28 131//28
f 125//29 126//29 130//29 129//29
f 127//6 125//6 129//6 131//6
f 128//30 127//30 131//30 132//30
f 135//5 133//5 137//5 139//5
f 109//31 110//31 134//31 133//31
f 110//6 114//6 136//6 134//6
f 113//5 109//5 133//5 135//5
f 138//6 140//6 144//6 142//6
f 136//32 135//32 139//32 140//32
f 134//6 136//6 140//6 138//6
f 133//33 134//33 138//33 137//33
f 141//34 142//34 144//34 143//34
f 137//35 138//35 142//35 141//35
f 139//5 137//5 141//5 143//5
f 140//36 139//36 143//36 144//36
