# Blender v2.79 (sub 0) OBJ File: ''
# www.blender.org
mtllib colliders.mtl
o Plane_Plane.001
v 5.382919 1.793627 7.159647
v 5.382919 1.142584 7.159647
v 5.382919 1.793627 -0.582211
v 5.382919 1.142584 -0.582211
v 5.809484 1.793627 7.159647
v 5.809484 1.142584 7.159647
v 5.809484 1.793627 -0.582211
v 5.809484 1.142584 -0.582211
v 5.399530 1.793627 -1.678277
v 5.399530 1.142584 -1.678277
v 5.792873 1.793627 -1.843321
v 5.792873 1.142584 -1.843321
v 5.092333 1.142584 -2.477455
v 5.092333 1.793627 -2.477454
v 5.358946 1.142584 -2.810435
v 5.358946 1.793627 -2.810434
v 3.788794 1.142584 -3.522210
v 3.788794 1.793627 -3.522209
v 4.025594 1.142584 -3.877012
v 4.025594 1.793627 -3.877011
v 2.705069 1.142585 -4.245503
v 2.705069 1.793628 -4.245503
v 2.941868 1.142585 -4.600306
v 2.941868 1.793628 -4.600305
v 5.382919 1.142585 7.159647
v 5.382919 1.793628 7.159647
v 5.382919 1.142585 -0.582211
v 5.382919 1.793628 -0.582211
v 5.809484 1.142585 7.159647
v 5.809484 1.793628 7.159647
v 5.809484 1.142585 -0.582211
v 5.809484 1.793628 -0.582211
v 5.399530 1.142585 -1.678277
v 5.399530 1.793628 -1.678277
v 5.792873 1.142585 -1.843321
v 5.792873 1.793628 -1.843321
v 5.092333 1.793628 -2.477455
v 5.092333 1.142585 -2.477454
v 5.358946 1.793628 -2.810435
v 5.358946 1.142585 -2.810434
v 3.788794 1.793628 -3.522210
v 3.788794 1.142585 -3.522209
v 4.025594 1.793628 -3.877012
v 4.025594 1.142585 -3.877011
v 2.705069 1.793627 -4.245503
v 2.705069 1.142584 -4.245503
v 2.941868 1.793627 -4.600306
v 2.941868 1.142584 -4.600305
v -3.328390 1.793627 7.159647
v -3.328390 1.142583 7.159647
v -3.328390 1.793627 -0.582211
v -3.328390 1.142583 -0.582211
v -3.754955 1.793627 7.159647
v -3.754955 1.142583 7.159647
v -3.754955 1.793627 -0.582211
v -3.754955 1.142583 -0.582211
v -3.345001 1.793627 -1.678277
v -3.345001 1.142584 -1.678277
v -3.738344 1.793627 -1.843321
v -3.738344 1.142584 -1.843321
v -3.037804 1.142584 -2.477455
v -3.037804 1.793627 -2.477454
v -3.304417 1.142584 -2.810435
v -3.304417 1.793627 -2.810434
v -1.734265 1.142584 -3.522210
v -1.734265 1.793627 -3.522209
v -1.971064 1.142584 -3.877012
v -1.971064 1.793627 -3.877011
v -0.650540 1.142584 -4.245503
v -0.650540 1.793628 -4.245503
v -0.887339 1.142584 -4.600306
v -0.887339 1.793628 -4.600305
v -3.328390 1.142584 7.159647
v -3.328390 1.793627 7.159647
v -3.328390 1.142584 -0.582211
v -3.328390 1.793627 -0.582211
v -3.754955 1.142584 7.159647
v -3.754955 1.793627 7.159647
v -3.754955 1.142584 -0.582211
v -3.754955 1.793627 -0.582211
v -3.345001 1.142584 -1.678277
v -3.345001 1.793627 -1.678277
v -3.738344 1.142584 -1.843321
v -3.738344 1.793627 -1.843321
v -3.037804 1.793627 -2.477455
v -3.037804 1.142584 -2.477454
v -3.304417 1.793627 -2.810435
v -3.304417 1.142584 -2.810434
v -1.734265 1.793627 -3.522210
v -1.734265 1.142584 -3.522209
v -1.971064 1.793627 -3.877012
v -1.971064 1.142584 -3.877011
v -0.650540 1.793627 -4.245503
v -0.650540 1.142584 -4.245503
v -0.887339 1.793627 -4.600306
v -0.887339 1.142584 -4.600305
vn -1.0000 0.0000 0.0000
vn 1.0000 0.0000 0.0000
vn -0.9999 0.0000 -0.0152
vn 0.0000 0.0000 1.0000
vn 0.0000 -1.0000 0.0000
vn 0.0000 1.0000 0.0000
vn 0.9999 0.0000 -0.0132
vn -0.9334 0.0000 0.3588
vn 0.9124 0.0000 -0.4094
vn 0.6247 0.0000 -0.7809
vn -0.6254 -0.0000 0.7803
vn -0.8318 0.0000 -0.5551
vn -0.5551 -0.0000 0.8318
vn 0.5551 0.0000 -0.8318
vn 0.9999 0.0000 -0.0152
vn -0.9999 0.0000 -0.0132
vn 0.9334 0.0000 0.3588
vn -0.9124 0.0000 -0.4094
vn -0.6247 0.0000 -0.7809
vn 0.6254 -0.0000 0.7803
vn 0.8318 0.0000 -0.5551
vn 0.5551 -0.0000 0.8318
vn -0.5551 0.0000 -0.8318
usemtl None
s off
f 1//1 3//1 4//1 2//1
f 5//2 6//2 8//2 7//2
f 4//3 3//3 9//3 10//3
f 1//4 2//4 6//4 5//4
f 2//5 4//5 8//5 6//5
f 3//6 1//6 5//6 7//6
f 9//6 11//6 16//6 14//6
f 3//6 7//6 11//6 9//6
f 8//5 4//5 10//5 12//5
f 7//7 8//7 12//7 11//7
f 15//5 13//5 17//5 19//5
f 10//8 9//8 14//8 13//8
f 12//5 10//5 13//5 15//5
f 11//9 12//9 15//9 16//9
f 18//6 20//6 24//6 22//6
f 16//10 15//10 19//10 20//10
f 14//6 16//6 20//6 18//6
f 13//11 14//11 18//11 17//11
f 21//12 22//12 24//12 23//12
f 17//13 18//13 22//13 21//13
f 19//5 17//5 21//5 23//5
f 20//14 19//14 23//14 24//14
f 25//1 26//1 28//1 27//1
f 29//2 31//2 32//2 30//2
f 28//3 34//3 33//3 27//3
f 25//4 29//4 30//4 26//4
f 26//6 30//6 32//6 28//6
f 27//5 31//5 29//5 25//5
f 33//5 38//5 40//5 35//5
f 27//5 33//5 35//5 31//5
f 32//6 36//6 34//6 28//6
f 31//7 35//7 36//7 32//7
f 39//6 43//6 41//6 37//6
f 34//8 37//8 38//8 33//8
f 36//6 39//6 37//6 34//6
f 35//9 40//9 39//9 36//9
f 42//5 46//5 48//5 44//5
f 40//10 44//10 43//10 39//10
f 38//5 42//5 44//5 40//5
f 37//11 41//11 42//11 38//11
f 45//12 47//12 48//12 46//12
f 41//13 45//13 46//13 42//13
f 43//6 47//6 45//6 41//6
f 44//14 48//14 47//14 43//14
f 49//2 50//2 52//2 51//2
f 53//1 55//1 56//1 54//1
f 52//15 58//15 57//15 51//15
f 49//4 53//4 54//4 50//4
f 50//5 54//5 56//5 52//5
f 51//6 55//6 53//6 49//6
f 57//6 62//6 64//6 59//6
f 51//6 57//6 59//6 55//6
f 56//5 60//5 58//5 52//5
f 55//16 59//16 60//16 56//16
f 63//5 67//5 65//5 61//5
f 58//17 61//17 62//17 57//17
f 60//5 63//5 61//5 58//5
f 59//18 64//18 63//18 60//18
f 66//6 70//6 72//6 68//6
f 64//19 68//19 67//19 63//19
f 62//6 66//6 68//6 64//6
f 61//20 65//20 66//20 62//20
f 69//21 71//21 72//21 70//21
f 65//22 69//22 70//22 66//22
f 67//5 71//5 69//5 65//5
f 68//23 72//23 71//23 67//23
f 73//2 75//2 76//2 74//2
f 77//1 78//1 80//1 79//1
f 76//15 75//15 81//15 82//15
f 73//4 74//4 78//4 77//4
f 74//6 76//6 80//6 78//6
f 75//5 73//5 77//5 79//5
f 81//5 83//5 88//5 86//5
f 75//5 79//5 83//5 81//5
f 80//6 76//6 82//6 84//6
f 79//16 80//16 84//16 83//16
f 87//6 85//6 89//6 91//6
f 82//17 81//17 86//17 85//17
f 84//6 82//6 85//6 87//6
f 83//18 84//18 87//18 88//18
f 90//5 92//5 96//5 94//5
f 88//19 87//19 91//19 92//19
f 86//5 88//5 92//5 90//5
f 85//20 86//20 90//20 89//20
f 93//21 94//21 96//21 95//21
f 89//22 90//22 94//22 93//22
f 91//6 89//6 93//6 95//6
f 92//23 91//23 95//23 96//23
