# Blender v2.79 (sub 0) OBJ File: ''
# www.blender.org
mtllib table.mtl
o Cube
v 5.736096 0.322911 -3.826659
v 5.736096 0.322911 3.826660
v -5.736097 0.322911 3.826659
v -5.736094 0.322911 -3.826661
v 5.736099 1.000000 -3.826658
v 5.736093 1.000000 3.826662
v -5.736098 1.000000 3.826658
v -5.736096 1.000000 -3.826660
v 5.366571 1.000000 -3.580139
v 5.366566 1.000000 3.580143
v -5.366571 1.000000 3.580140
v -5.366569 1.000000 -3.580141
vn 0.0000 -1.0000 -0.0000
vn 0.0000 1.0000 0.0000
vn 1.0000 0.0000 0.0000
vn -0.0000 -0.0000 1.0000
vn -1.0000 -0.0000 -0.0000
vn 0.0000 0.0000 -1.0000
usemtl Material
s off
f 1//1 2//1 3//1 4//1
f 6//2 5//2 9//2 10//2
f 1//3 5//3 6//3 2//3
f 2//4 6//4 7//4 3//4
f 3//5 7//5 8//5 4//5
f 5//6 1//6 4//6 8//6
f 8//2 7//2 11//2 12//2
f 5//2 8//2 12//2 9//2
f 7//2 6//2 10//2 11//2
