# Blender v2.79 (sub 0) OBJ File: ''
# www.blender.org
mtllib table2.mtl
o Cube.001
v 5.000000 -1.000000 -3.000000
v 5.000000 -1.000000 3.000000
v -5.000000 -1.000000 3.000000
v -4.999998 -1.000000 -3.000001
v -5.000000 1.000000 -3.000000
v -5.000002 1.000000 2.999999
v -5.000002 1.000000 2.999999
v -5.000000 1.000000 -3.000000
v 5.000002 1.000000 -2.999998
v 4.999997 1.000000 3.000002
v -4.219382 1.000000 2.531627
v -4.219380 1.000000 -2.531628
v 5.000002 1.000000 -2.999998
v 4.999997 1.000000 3.000002
v 4.219378 1.000000 2.531630
v 4.219378 0.048694 2.531630
v -4.219382 0.048694 2.531627
v 4.219382 1.000000 -2.531627
v 4.219382 0.048694 -2.531627
v -4.219380 0.048694 -2.531628
vn 0.0000 -1.0000 -0.0000
vn 0.0000 0.0000 0.0000
vn 1.0000 -0.0000 0.0000
vn -0.0000 0.0000 1.0000
vn -1.0000 -0.0000 -0.0000
vn 0.0000 0.0000 -1.0000
vn 0.0000 1.0000 0.0000
usemtl Material.001
s 1
f 2//1 4//1 1//1
f 5//2 7//2 8//2
f 9//3 2//3 1//3
f 10//2 3//4 2//4
f 6//5 4//5 3//5
f 1//6 5//6 9//6
f 7//7 12//7 8//7
f 9//2 8//2 13//2
f 6//2 14//2 7//2
f 10//2 13//2 14//2
f 15//6 17//6 11//6
f 13//7 12//7 18//7
f 14//7 11//7 7//7
f 13//7 15//7 14//7
f 20//7 16//7 19//7
f 18//5 16//5 15//5
f 11//3 20//3 12//3
f 12//4 19//4 18//4
f 2//1 3//1 4//1
f 5//2 6//2 7//2
f 9//3 10//3 2//3
f 10//2 6//2 3//4
f 6//5 5//5 4//5
f 1//6 4//6 5//6
f 7//7 11//7 12//7
f 9//2 5//2 8//2
f 6//2 10//2 14//2
f 10//2 9//2 13//2
f 15//6 16//6 17//6
f 13//7 8//7 12//7
f 14//7 15//7 11//7
f 13//7 18//7 15//7
f 20//7 17//7 16//7
f 18//5 19//5 16//5
f 11//3 17//3 20//3
f 12//4 20//4 19//4
