# Blender v2.79 (sub 0) OBJ File: 'handle.obj'
# www.blender.org
mtllib flipper3.mtl
o Cube.002
v -1.896464 0.038284 0.462245
v -1.896464 1.041333 0.462245
v -3.425266 1.041333 0.211104
v -3.425266 0.038284 0.211104
v -3.429273 1.041333 0.184764
v -3.429273 0.038284 0.184764
v -2.044313 1.041333 -0.509639
v -2.044313 0.038284 -0.509639
v 0.093051 1.041333 0.159586
v -0.054799 1.041333 -0.812298
v 0.941427 1.041333 -0.283381
v 0.886924 1.041333 -0.641653
v -0.054799 0.038284 -0.812298
v 0.093051 0.038284 0.159586
v 0.886924 0.038284 -0.641653
v 0.941427 0.038284 -0.283381
vt 1.000000 0.251259
vt 0.803988 0.251259
vt 0.803988 0.000000
vt 1.000000 0.000000
vt 0.112061 1.000000
vt 0.112061 0.748741
vt 0.120299 0.748741
vt 0.120300 1.000000
vt 0.803988 0.748741
vt 0.607976 0.748741
vt 0.607976 0.497483
vt 0.803988 0.497483
vt 0.303988 0.251259
vt 0.607976 0.251259
vt 0.607976 0.594378
vt 0.303988 0.594378
vt 0.156113 0.748741
vt 0.147875 0.748741
vt 0.000000 0.497483
vt 0.303988 0.497483
vt 0.451863 0.000000
vt 0.460101 0.000000
vt 0.512012 0.748741
vt 0.399952 0.748741
vt 0.607976 0.154364
vt 0.803988 0.154364
vt 1.000000 0.594378
vt 0.803988 0.594378
vt 0.000000 0.154364
vt 0.303988 0.154364
vt 0.000000 1.000000
vt 0.000000 0.748741
vt 0.112061 0.748741
vt 0.112061 1.000000
vt 0.607976 0.000000
vt 0.803988 0.000000
vt 0.095964 0.000000
vt 0.208024 0.000000
vt 1.000000 0.748741
vt 0.803988 0.748741
vn -0.1621 0.0000 0.9868
vn -0.9886 0.0000 0.1504
vn -0.4482 0.0000 -0.8939
vn 0.0000 1.0000 0.0000
vn -0.0000 -1.0000 0.0000
vn -0.1504 0.0000 -0.9886
vn 0.1504 -0.0000 0.9886
vn 0.9886 0.0000 -0.1504
vn 0.1783 -0.0000 -0.9840
vn 0.4628 0.0000 0.8864
usemtl None.001
s 1
f 1/1/1 2/2/1 3/3/1 4/4/1
f 4/5/2 3/6/2 5/7/2 6/8/2
f 6/9/3 5/10/3 7/11/3 8/12/3
f 7/13/4 2/14/4 9/15/4 10/16/4
f 4/17/5 6/18/5 8/19/5 1/20/5
f 5/21/4 3/22/4 2/14/4 7/13/4
f 10/16/4 9/15/4 11/23/4 12/24/4
f 8/12/6 7/11/6 10/25/6 13/26/6
f 2/2/7 1/1/7 14/27/7 9/28/7
f 1/20/5 8/19/5 13/29/5 14/30/5
f 15/31/8 12/32/8 11/33/8 16/34/8
f 13/26/9 10/25/9 12/35/9 15/36/9
f 14/30/5 13/29/5 15/37/5 16/38/5
f 9/28/10 14/27/10 16/39/10 11/40/10
