# Blender v2.79 (sub 0) OBJ File: ''
# www.blender.org
mtllib flipper3.mtl
o Cube.002
v -3.139082 0.609823 0.507294
v -3.064251 1.609831 0.529489
v -4.515041 1.730160 -0.000637
v -4.589873 0.730153 -0.022832
v -4.514054 1.730677 -0.027257
v -4.588885 0.730670 -0.049452
v -3.027805 1.628903 -0.452716
v -3.102636 0.628896 -0.474911
v -1.058841 1.458178 0.600955
v -1.022396 1.477251 -0.381249
v -0.145136 1.395973 0.323043
v -0.131701 1.403004 -0.039033
v -1.097228 0.477243 -0.403444
v -1.133673 0.458171 0.578761
v -0.206533 0.402997 -0.061228
v -0.219968 0.395966 0.300849
vt 1.000000 0.251259
vt 0.803988 0.251259
vt 0.803988 0.000000
vt 1.000000 0.000000
vt 0.112061 1.000000
vt 0.112061 0.748741
vt 0.120299 0.748741
vt 0.120300 1.000000
vt 0.803988 0.748741
vt 0.607976 0.748741
vt 0.607976 0.497483
vt 0.803988 0.497483
vt 0.303988 0.251259
vt 0.607976 0.251259
vt 0.607976 0.594378
vt 0.303988 0.594378
vt 0.156113 0.748741
vt 0.147875 0.748741
vt 0.000000 0.497483
vt 0.303988 0.497483
vt 0.451863 0.000000
vt 0.460101 0.000000
vt 0.512012 0.748741
vt 0.399952 0.748741
vt 0.607976 0.154364
vt 0.803988 0.154364
vt 1.000000 0.594378
vt 0.803988 0.594378
vt 0.000000 0.154364
vt 0.303988 0.154364
vt 0.000000 1.000000
vt 0.000000 0.748741
vt 0.112061 0.748741
vt 0.112061 1.000000
vt 0.607976 0.000000
vt 0.803988 0.000000
vt 0.095964 0.000000
vt 0.208024 0.000000
vt 1.000000 0.748741
vt 0.803988 0.748741
vn -0.3429 0.0048 0.9394
vn -0.9965 0.0754 -0.0355
vn -0.2723 0.0417 -0.9613
vn 0.0746 0.9970 0.0221
vn -0.0746 -0.9970 -0.0221
vn 0.0371 0.0194 -0.9991
vn -0.0371 -0.0194 0.9991
vn 0.9965 -0.0754 0.0355
vn 0.3582 -0.0061 -0.9336
vn 0.2881 -0.0428 0.9567
usemtl None.001
s 1
f 1/1/1 2/2/1 3/3/1 4/4/1
f 4/5/2 3/6/2 5/7/2 6/8/2
f 6/9/3 5/10/3 7/11/3 8/12/3
f 7/13/4 2/14/4 9/15/4 10/16/4
f 4/17/5 6/18/5 8/19/5 1/20/5
f 5/21/4 3/22/4 2/14/4 7/13/4
f 10/16/4 9/15/4 11/23/4 12/24/4
f 8/12/6 7/11/6 10/25/6 13/26/6
f 2/2/7 1/1/7 14/27/7 9/28/7
f 1/20/5 8/19/5 13/29/5 14/30/5
f 15/31/8 12/32/8 11/33/8 16/34/8
f 13/26/9 10/25/9 12/35/9 15/36/9
f 14/30/5 13/29/5 15/37/5 16/38/5
f 9/28/10 14/27/10 16/39/10 11/40/10
