# Blender v2.79 (sub 0) OBJ File: ''
# www.blender.org
mtllib handle.mtl
o Cube.001
v 0.302762 0.143115 -0.112575
v 0.302762 0.326115 -0.112575
v 0.505970 0.143115 0.285874
v 0.505970 0.326115 0.285874
v 0.102080 0.143115 0.088109
v 0.102080 0.326115 0.088109
v 0.500531 0.143115 0.291313
v 0.500531 0.326115 0.291313
v -0.108051 0.143115 -0.523385
v -0.108051 0.326115 -0.523385
v -0.308734 0.326115 -0.322701
v -0.308734 0.143115 -0.322701
v -0.356221 0.143115 -0.644849
v -0.356221 0.326115 -0.644849
v -0.430200 0.326115 -0.570870
v -0.430200 0.143115 -0.570870
vn 0.8908 0.0000 -0.4543
vn 0.7071 0.0000 0.7071
vn -0.4543 0.0000 0.8908
vn 0.0000 1.0000 0.0000
vn 0.0000 -1.0000 -0.0000
vn -0.7071 0.0000 0.7071
vn 0.7071 0.0000 -0.7071
vn -0.7071 0.0000 -0.7071
vn -0.8982 0.0000 0.4396
vn 0.4396 0.0000 -0.8982
usemtl None
s off
f 1//1 2//1 4//1 3//1
f 3//2 4//2 8//2 7//2
f 7//3 8//3 6//3 5//3
f 6//4 2//4 10//4 11//4
f 3//5 7//5 5//5 1//5
f 8//4 4//4 2//4 6//4
f 11//4 10//4 14//4 15//4
f 5//6 6//6 11//6 12//6
f 2//7 1//7 9//7 10//7
f 1//5 5//5 12//5 9//5
f 16//8 15//8 14//8 13//8
f 12//9 11//9 15//9 16//9
f 9//5 12//5 16//5 13//5
f 10//10 9//10 13//10 14//10
