# Blender v2.79 (sub 0) OBJ File: 'tri.blend'
# www.blender.org
mtllib tri2.mtl
o Plane
v 10.992815 2.333723 18.897232
v 10.840574 2.333722 11.506239
v 10.815903 2.333722 11.506746
v 3.601820 2.333723 19.049473
v 10.992815 0.113526 18.897232
v 3.601820 0.113526 19.049473
v 10.815903 0.113525 11.506746
v 10.840574 0.113525 11.506239
vn -0.0000 1.0000 -0.0000
vn 0.0000 -1.0000 0.0000
vn -0.0206 0.0000 -0.9998
vn 0.0206 0.0000 0.9998
vn -0.7227 0.0000 -0.6912
vn 0.9998 0.0000 -0.0206
usemtl None
s 1
f 1//1 2//1 3//1 4//1
f 5//2 6//2 7//2 8//2
f 3//3 2//3 8//3 7//3
f 1//4 4//4 6//4 5//4
f 4//5 3//5 7//5 6//5
f 2//6 1//6 5//6 8//6
