# Blender v2.79 (sub 0) OBJ File: ''
# www.blender.org
mtllib tri2.mtl
o Plane.001
v 10.992815 2.333722 18.897232
v 10.840574 2.333722 11.506239
v 10.815903 2.333722 11.506746
v 3.601820 2.333722 19.049473
v 10.992815 0.113525 18.897232
v 3.601820 0.113525 19.049473
v 10.815903 0.113524 11.506746
v 10.840574 0.113524 11.506239
vt 0.869441 0.000000
vt 0.869441 0.500000
vt 0.867990 0.500000
vt 0.434721 0.000000
vt 0.434721 0.500000
vt 0.000000 0.500000
vt 0.433270 0.000000
vt 0.434721 0.000000
vt 0.869441 0.001178
vt 0.869441 0.000000
vt 1.000000 0.000000
vt 1.000000 0.001178
vt 0.000000 1.000000
vt 0.000000 0.500000
vt 0.130559 0.500000
vt 0.130559 1.000000
vt 0.869441 0.707106
vt 1.000000 0.707106
vt 0.261118 0.500000
vt 0.261118 1.000000
vt 0.130559 0.500000
vn -0.0000 1.0000 0.0000
vn 0.0000 -1.0000 0.0000
vn -0.0205 0.0000 -0.9998
vn 0.0206 0.0000 0.9998
vn -0.7227 0.0000 -0.6912
vn 0.9998 0.0000 -0.0206
usemtl None.001
s 1
f 1/1/1 2/2/1 3/3/1 4/4/1
f 5/5/2 6/6/2 7/7/2 8/8/2
f 3/9/3 2/10/3 8/11/3 7/12/3
f 1/13/4 4/14/4 6/15/4 5/16/4
f 4/17/5 3/9/5 7/12/5 6/18/5
f 2/19/6 1/20/6 5/16/6 8/21/6
