# Blender v2.79 (sub 0) OBJ File: 'tri.blend'
# www.blender.org
mtllib tri3.mtl
o Plane
v -8.168918 2.228502 -13.650333
v -8.194036 3.127078 -8.554255
v -8.185153 3.127085 -8.554213
v -5.507533 2.230745 -13.637610
v -8.168919 0.042035 -13.264800
v -5.507534 0.044278 -13.252077
v -8.185153 0.940618 -8.168680
v -8.194036 0.940610 -8.168722
vn 0.0000 0.9848 -0.1736
vn 0.0000 -0.9848 0.1736
vn -0.0048 0.1737 0.9848
vn 0.0049 -0.1736 -0.9848
vn 0.8877 0.0800 0.4535
vn -1.0000 -0.0008 -0.0048
usemtl None
s 1
f 1//1 2//1 3//1 4//1
f 5//2 6//2 7//2 8//2
f 3//3 2//3 8//3 7//3
f 1//4 4//4 6//4 5//4
f 4//5 3//5 7//5 6//5
f 2//6 1//6 5//6 8//6
