# Blender v2.79 (sub 0) OBJ File: ''
# www.blender.org
mtllib tri3.mtl
o Plane
v -8.168918 2.228503 -13.650333
v -8.194036 3.127079 -8.554255
v -8.185153 3.127085 -8.554213
v -5.507533 2.230746 -13.637610
v -8.168919 0.042036 -13.264800
v -5.507534 0.044279 -13.252077
v -8.185153 0.940618 -8.168680
v -8.194036 0.940610 -8.168722
vt 0.545192 0.000000
vt 0.545192 0.660368
vt 0.544282 0.660368
vt 0.272596 0.000000
vt 0.272596 0.660368
vt 0.000000 0.660368
vt 0.271686 0.000000
vt 0.272596 0.000000
vt 0.545192 0.000517
vt 0.545192 0.000000
vt 0.772596 0.000000
vt 0.772596 0.000517
vt 0.000000 1.000000
vt 0.000000 0.660368
vt 0.227404 0.660368
vt 0.227404 1.000000
vt 0.545192 0.742587
vt 0.772596 0.742586
vt 0.772596 0.660368
vt 0.772596 0.000000
vt 1.000000 0.000000
vt 1.000000 0.660368
vn 0.0000 0.9848 -0.1736
vn 0.0000 -0.9848 0.1736
vn -0.0047 0.1736 0.9848
vn 0.0049 -0.1736 -0.9848
vn 0.8877 0.0800 0.4535
vn -1.0000 -0.0008 -0.0048
usemtl None
s 1
f 1/1/1 2/2/1 3/3/1 4/4/1
f 5/5/2 6/6/2 7/7/2 8/8/2
f 3/9/3 2/10/3 8/11/3 7/12/3
f 1/13/4 4/14/4 6/15/4 5/16/4
f 4/17/5 3/9/5 7/12/5 6/18/5
f 2/19/6 1/20/6 5/21/6 8/22/6
