# Blender v2.79 (sub 0) OBJ File: ''
# www.blender.org
mtllib wall.mtl
o Cube_Cube.002
v -9.677863 0.234400 7.796570
v -9.677863 2.272255 7.796570
v -9.677863 2.272256 -16.275587
v -9.677863 0.234401 -16.275587
v -8.455150 2.272256 -16.275587
v -8.455150 0.234401 -16.275587
v -8.455150 2.272255 7.796570
v -8.455150 0.234400 7.796570
vt 0.000000 0.000000
vt 0.263158 0.000000
vt 0.263158 1.000000
vt 0.000001 1.000000
vt 0.842105 0.169312
vt 0.842105 0.084656
vt 1.000000 0.084656
vt 1.000000 0.169312
vt 0.263158 0.000000
vt 0.526316 0.000000
vt 0.526316 1.000000
vt 0.263158 1.000000
vt 1.000000 0.000000
vt 1.000000 0.084656
vt 0.842105 0.084656
vt 0.842105 0.000000
vt 0.684211 1.000000
vt 0.526316 1.000000
vt 0.526316 0.000000
vt 0.684210 0.000000
vt 0.842105 1.000000
vt 0.684211 1.000000
vt 0.684211 0.000000
vt 0.842105 0.000000
vn -1.0000 0.0000 0.0000
vn 0.0000 0.0000 -1.0000
vn 1.0000 0.0000 0.0000
vn 0.0000 0.0000 1.0000
vn 0.0000 -1.0000 -0.0000
vn 0.0000 1.0000 0.0000
usemtl None
s 1
f 1/1/1 2/2/1 3/3/1 4/4/1
f 4/5/2 3/6/2 5/7/2 6/8/2
f 6/9/3 5/10/3 7/11/3 8/12/3
f 8/13/4 7/14/4 2/15/4 1/16/4
f 4/17/5 6/18/5 8/19/5 1/20/5
f 5/21/6 3/22/6 2/23/6 7/24/6
