# Blender v2.79 (sub 0) OBJ File: ''
# www.blender.org
mtllib table.mtl
o Cube
v 5.000000 -1.000000 -3.000000
v 5.000000 -1.000000 3.000000
v -5.000000 -1.000000 3.000000
v -4.999998 -1.000000 -3.000001
v 5.000002 1.000000 -2.999998
v 4.999997 1.000000 3.000002
v -5.000002 1.000000 2.999999
v -5.000000 1.000000 -3.000000
v 5.000002 1.000000 -2.999998
v 4.999997 1.000000 3.000002
v -5.000000 1.000000 -3.000000
v -5.000002 1.000000 2.999999
v 4.219382 1.000000 -2.531627
v 4.219378 1.000000 2.531630
v -4.219380 1.000000 -2.531628
v -4.219382 1.000000 2.531627
v 4.219382 0.048694 -2.531627
v 4.219378 0.048694 2.531630
v -4.219380 0.048694 -2.531628
v -4.219382 0.048694 2.531627
vn 0.0000 -1.0000 0.0000
vn 0.0000 0.0000 1.0000
vn 1.0000 0.0000 0.0000
vn -1.0000 -0.0000 -0.0000
vn 0.0000 0.0000 -1.0000
vn 0.0000 1.0000 0.0000
usemtl Material
s off
f 1//1 2//1 3//1 4//1
f 8//2 7//2 12//2 11//2
f 1//3 5//3 6//3 2//3
f 2//2 6//2 7//2 3//2
f 3//4 7//4 8//4 4//4
f 5//5 1//5 4//5 8//5
f 11//6 12//6 16//6 15//6
f 5//2 8//2 11//2 9//2
f 7//2 6//2 10//2 12//2
f 6//2 5//2 9//2 10//2
f 16//5 14//5 18//5 20//5
f 9//6 11//6 15//6 13//6
f 12//6 10//6 14//6 16//6
f 10//6 9//6 13//6 14//6
f 17//6 19//6 20//6 18//6
f 14//4 13//4 17//4 18//4
f 15//3 16//3 20//3 19//3
f 13//2 15//2 19//2 17//2
