# Blender v2.79 (sub 0) OBJ File: 'box2.blend'
# www.blender.org
mtllib box2.mtl
o Cube
v 4.653277 -0.120584 -3.264391
v 4.653277 -0.120584 3.074438
v -3.270261 -0.120584 3.074438
v -3.270259 -0.120584 -3.264393
v 5.688299 -1.500000 -3.999998
v 5.688299 -1.500000 3.999998
v -4.311697 -1.500000 3.999997
v -4.311694 -1.500000 -4.000000
v 5.688302 1.500000 -3.999996
v 5.688296 1.500000 4.000000
v -4.311698 1.500000 3.999997
v -4.311696 1.500000 -3.999998
v 4.653275 1.500000 3.074439
v 4.653278 1.500000 -3.264390
v -3.270262 1.500000 3.074437
v -3.270260 1.500000 -3.264392
vn 0.0000 1.0000 0.0000
vn -1.0000 0.0000 0.0000
vn 0.0000 0.0000 -1.0000
vn 1.0000 0.0000 0.0000
vn 0.0000 -1.0000 0.0000
vn -0.0000 -0.0000 1.0000
g Cube_Cube_Material.002
usemtl Material.002
s off
f 4//1 2//1 1//1
g Cube_Cube_Material
usemtl Material
f 2//2 14//2 1//2
f 3//3 13//3 2//3
f 3//4 16//4 15//4
f 6//5 8//5 5//5
f 12//1 15//1 16//1
f 9//4 6//4 5//4
f 10//6 7//6 6//6
f 7//2 12//2 8//2
f 5//3 12//3 9//3
f 10//1 9//1 13//1
f 4//6 14//6 16//6
g Cube_Cube_Material.002
usemtl Material.002
f 4//1 3//1 2//1
g Cube_Cube_Material
usemtl Material
f 2//2 13//2 14//2
f 3//3 15//3 13//3
f 3//4 4//4 16//4
f 6//5 7//5 8//5
f 14//1 9//1 16//1
f 9//1 12//1 16//1
f 12//1 11//1 15//1
f 9//4 10//4 6//4
f 10//6 11//6 7//6
f 7//2 11//2 12//2
f 5//3 8//3 12//3
f 9//1 14//1 13//1
f 13//1 15//1 10//1
f 15//1 11//1 10//1
f 4//6 1//6 14//6
