# Blender v2.79 (sub 0) OBJ File: ''
# www.blender.org
mtllib digiPoints2.mtl
o Cube.000_Cube.001
v 7.586072 -0.134738 27.001350
v 7.586072 -0.134738 27.408112
v 7.586072 4.021297 27.408112
v 7.586072 4.021296 27.001350
v 10.551844 -0.134739 27.001350
v 10.551844 4.021297 27.001350
v 10.551844 4.021297 27.408112
v 10.551844 -0.134737 27.408112
vt 1.000000 0.000000
vt 0.000000 0.000000
vt 0.000000 1.000000
vt 1.000000 1.000000
vt 1.000000 0.000000
vt 0.000000 0.000000
vt 0.000000 1.000000
vt 1.000000 1.000000
vt 0.000000 0.000000
vt 0.000000 1.000000
vt 1.000000 1.000000
vt 1.000000 0.000000
vt 0.000000 0.000000
vt 1.000000 1.000000
vt 1.000000 0.000000
vt 1.000000 1.000000
vt 0.000000 1.000000
vt 0.000000 0.000000
vt 1.000000 0.000000
vn -1.0000 0.0000 0.0000
vn 1.0000 0.0000 0.0000
vn 0.0000 -1.0000 0.0000
vn -0.0000 0.0000 1.0000
vn -0.0000 1.0000 -0.0000
vn 0.0000 0.0000 -1.0000
usemtl Material.001
s 1
f 1/1/1 2/2/1 3/3/1 4/4/1
f 5/5/2 6/6/2 7/7/2 8/8/2
f 1/1/3 5/9/3 8/10/3 2/11/3
f 2/12/4 8/13/4 7/7/4 3/14/4
f 3/14/5 7/7/5 6/6/5 4/15/5
f 5/16/6 1/17/6 4/18/6 6/19/6
o Cube.001_Cube.004
v 7.620125 -0.134738 27.001350
v 7.620125 -0.134738 27.408112
v 7.620125 4.021297 27.408112
v 7.620125 4.021296 27.001350
v 10.585896 -0.134739 27.001350
v 10.585896 4.021297 27.001350
v 10.585896 4.021297 27.408112
v 10.585896 -0.134737 27.408112
vt 0.000000 0.000000
vt 1.000000 0.000000
vt 1.000000 1.000000
vt 0.000000 1.000000
vt 0.000000 0.000000
vt 1.000000 0.000000
vt 1.000000 1.000000
vt 0.000000 1.000000
vt 1.000000 0.000000
vt 1.000000 1.000000
vt 0.000000 1.000000
vt 0.000000 0.000000
vt 1.000000 0.000000
vt 0.000000 1.000000
vt 0.000000 0.000000
vt 0.000000 1.000000
vt 1.000000 1.000000
vt 1.000000 0.000000
vt 0.000000 0.000000
vn -1.0000 0.0000 0.0000
vn 1.0000 0.0000 0.0000
vn 0.0000 -1.0000 0.0000
vn -0.0000 0.0000 1.0000
vn -0.0000 1.0000 -0.0000
vn 0.0000 0.0000 -1.0000
usemtl Material.003
s 1
f 9/20/7 10/21/7 11/22/7 12/23/7
f 13/24/8 14/25/8 15/26/8 16/27/8
f 9/20/9 13/28/9 16/29/9 10/30/9
f 10/31/10 16/32/10 15/26/10 11/33/10
f 11/33/11 15/26/11 14/25/11 12/34/11
f 13/35/12 9/36/12 12/37/12 14/38/12
