# Blender v2.79 (sub 0) OBJ File: 'digitPoints1.blend'
# www.blender.org
mtllib digitPoints1.mtl
o Cube.002
v 10.745348 -0.134737 27.001350
v 10.745348 -0.134737 27.408112
v 10.745348 4.021298 27.408112
v 10.745348 4.021297 27.001350
v 13.711119 -0.134738 27.001350
v 13.711119 4.021298 27.001350
v 13.711119 4.021299 27.408112
v 13.711119 -0.134736 27.408112
vt 0.000000 0.000000
vt 1.000000 0.000000
vt 1.000000 1.000000
vt 0.000000 1.000000
vt 0.000000 0.000000
vt 1.000000 0.000000
vt 1.000000 1.000000
vt 0.000000 1.000000
vt 1.000000 0.000000
vt 1.000000 1.000000
vt 0.000000 1.000000
vt 0.000000 0.000000
vt 1.000000 0.000000
vt 0.000000 1.000000
vt 0.000000 0.000000
vt 0.000000 1.000000
vt 1.000000 1.000000
vt 1.000000 0.000000
vt 0.000000 0.000000
vn -1.0000 0.0000 0.0000
vn 1.0000 0.0000 0.0000
vn 0.0000 -1.0000 0.0000
vn -0.0000 0.0000 1.0000
vn -0.0000 1.0000 -0.0000
vn -0.0000 0.0000 -1.0000
usemtl Material.004
s 1
f 1/1/1 2/2/1 3/3/1 4/4/1
f 5/5/2 6/6/2 7/7/2 8/8/2
f 1/1/3 5/9/3 8/10/3 2/11/3
f 2/12/4 8/13/4 7/7/4 3/14/4
f 3/14/5 7/7/5 6/6/5 4/15/5
f 5/16/6 1/17/6 4/18/6 6/19/6
