# Blender v2.79 (sub 0) OBJ File: ''
# www.blender.org
mtllib Frame3.mtl
o Plane.001
v 16.954294 11.388785 -20.882654
v 17.544186 -18.266890 -16.812668
v 17.084019 8.614460 -16.982790
v 16.914934 -18.456032 10.468579
v 16.723833 -23.028898 -21.415689
v 17.060656 -22.810831 14.447044
v 17.078009 8.416864 10.284196
v 15.951826 11.741014 14.542374
v 17.796379 11.624741 -20.502966
v 17.696417 8.615187 -16.972603
v 17.826097 -18.266159 -16.802488
v 17.443865 -17.826666 10.478761
v 17.722597 -23.285566 14.776054
v 17.433132 -23.009739 -21.454369
v 17.690413 8.417593 10.294374
v 17.387175 11.767920 14.781826
vt 0.000000 0.000000
vt 0.844668 0.095869
vt 0.079044 0.095869
vt 0.844668 0.886015
vt 1.000000 0.000000
vt 1.000000 1.000000
vt 0.079044 0.886015
vt 0.000000 1.000000
vt 0.000000 0.000000
vt 0.079044 0.095869
vt 0.844668 0.095869
vt 0.844668 0.886015
vt 1.000000 1.000000
vt 1.000000 0.000000
vt 0.079044 0.886015
vt 0.000000 1.000000
vn -0.5060 0.4804 -0.7164
vn -0.8582 0.3706 0.3552
vn -0.8978 -0.3220 0.3005
vn -0.9807 0.1514 -0.1235
vn -0.6142 -0.5687 -0.5471
vn -0.8204 -0.3697 0.4363
vn -0.8132 -0.4176 -0.4053
vn -0.6761 0.5546 0.4851
vn 0.5816 0.6888 -0.4327
vn 0.8965 -0.3143 0.3124
vn 0.9188 0.2695 0.2883
vn 0.7846 0.2378 -0.5726
vn 0.3294 -0.6941 0.6401
vn 0.5523 -0.5737 -0.6049
vn 0.9224 -0.2758 -0.2705
vn 0.5104 0.5785 0.6362
usemtl None.001
s 1
f 1/1/1 2/2/2 3/3/3
f 4/4/4 5/5/5 6/6/6
f 7/7/7 8/8/8 1/1/1
f 1/1/1 5/5/5 2/2/2
f 3/3/3 7/7/7 1/1/1
f 8/8/8 7/7/7 4/4/4
f 4/4/4 2/2/2 5/5/5
f 6/6/6 8/8/8 4/4/4
f 9/9/9 10/10/10 11/11/11
f 12/12/12 13/13/13 14/14/14
f 15/15/15 9/9/9 16/16/16
f 9/9/9 11/11/11 14/14/14
f 10/10/10 9/9/9 15/15/15
f 16/16/16 12/12/12 15/15/15
f 12/12/12 14/14/14 11/11/11
f 13/13/13 12/12/12 16/16/16
f 1/1/1 14/14/14 5/5/5
f 6/6/6 14/14/14 13/13/13
f 7/7/7 12/12/12 4/4/4
f 6/6/6 16/16/16 8/8/8
f 4/4/4 11/11/11 2/2/2
f 7/7/7 10/10/10 15/15/15
f 8/8/8 9/9/9 1/1/1
f 2/2/2 10/10/10 3/3/3
f 1/1/1 9/9/9 14/14/14
f 6/6/6 5/5/5 14/14/14
f 7/7/7 15/15/15 12/12/12
f 6/6/6 13/13/13 16/16/16
f 4/4/4 12/12/12 11/11/11
f 7/7/7 3/3/3 10/10/10
f 8/8/8 16/16/16 9/9/9
f 2/2/2 11/11/11 10/10/10
