# Blender v2.79 (sub 0) OBJ File: ''
# www.blender.org
mtllib FunBox.mtl
o Cube_Cube.002
v -17.304953 10.426607 -16.452810
v -17.304953 12.418116 -16.452810
v -17.304953 12.418116 -20.595148
v -17.304953 10.426607 -20.595148
v 16.947458 12.418116 -20.595148
v 16.947458 10.426607 -20.595148
v 16.947458 12.418116 -16.452810
v 16.947458 10.426607 -16.452810
v 16.056984 19.825237 15.852509
v 16.056984 22.218906 15.092908
v 16.056984 11.281257 -19.374123
v 16.056984 8.887588 -18.614523
v 17.061506 11.281257 -19.374123
v 17.061506 8.887588 -18.614523
v 17.061506 22.218906 15.092908
v 17.061506 19.825237 15.852509
v -16.730186 19.825237 15.852506
v -16.730186 22.218906 15.092904
v -16.730186 11.281257 -19.374123
v -16.730186 8.887588 -18.614523
v -15.725665 11.281257 -19.374123
v -15.725665 8.887588 -18.614523
v -15.725665 22.218906 15.092904
v -15.725665 19.825237 15.852506
v -16.999418 -23.655922 18.472555
v -16.999418 22.368317 18.472555
v -16.999418 22.368320 13.874959
v -16.999418 -23.655922 13.874961
v 17.365345 22.368324 13.874955
v 17.365345 -23.655914 13.874961
v 17.365345 22.368324 18.472555
v 17.365345 -23.655922 18.472559
v -16.832972 -23.386955 14.055957
v -16.832972 -21.996544 14.055957
v -16.832972 -21.996540 -20.032259
v -16.832972 -23.386955 -20.032257
v 17.034460 -21.996536 -20.032257
v 17.034460 -23.386948 -20.032257
v 17.034460 -21.996540 14.055961
v 17.034460 -23.386951 14.055957
v -13.930165 -20.068302 11.589070
v -13.930165 -18.353016 11.321124
v -13.930165 -19.897602 1.433404
v -13.930165 -21.612885 1.701350
v 13.450726 -19.897602 1.433404
v 13.450726 -21.612881 1.701350
v 13.450726 -18.353016 11.321124
v 13.450726 -20.068298 11.589070
v -13.857547 -18.417664 -17.010235
v -13.857543 -17.742474 -17.010235
v -15.602446 -17.742474 -17.010235
v -15.602449 8.956793 -17.010246
v -17.469969 8.956791 -17.010244
v -17.469969 7.957889 -17.010246
v -17.469969 -18.417664 -17.010237
v 15.261815 -17.742470 -18.684759
v 13.516912 -17.742470 -18.684761
v 13.516912 -17.742474 -17.010242
v 15.261815 -17.742474 -17.010242
v 15.261824 8.956806 -17.010237
v 15.261807 8.956796 10.364218
v 15.261815 -17.742470 10.364205
v 15.261815 -17.742470 12.179500
v 15.261806 11.499931 12.179505
v 15.261821 11.499931 -18.684755
v -15.602452 -17.742474 12.179496
v -15.602456 11.499928 12.179492
v -15.602449 -17.742474 10.364215
v -15.602452 8.956798 10.364210
v -15.602446 -17.742474 -18.684767
v -15.602449 11.499930 -18.684767
v 17.129339 -23.099388 -20.552286
v 13.095897 -23.099380 -16.663769
v -13.964656 -23.099388 -16.663778
v -13.964660 -23.099388 10.394403
v -17.469978 -23.099392 14.047019
v -17.469969 -23.099388 -20.552294
v 17.129347 11.499934 -20.552280
v -17.469969 11.499929 -20.552286
v -17.469978 11.499929 14.047017
v 17.129328 11.499931 14.047032
v 17.129332 -3.284626 10.364218
v 17.129332 8.956795 10.364218
v 17.129347 8.956806 -17.010237
v 17.129339 -18.417652 -17.010242
v 17.129339 -23.099380 14.047023
v -17.469978 8.956798 10.364210
v -17.469978 -18.417664 10.364217
v 13.516914 -3.288223 -20.552282
v 13.516910 8.956801 -20.552280
v -13.857547 8.956795 -20.552288
v -13.857543 -17.742474 -18.684765
v -13.857547 8.956797 -18.684763
v 13.516910 8.956801 -18.684759
v 13.516912 -18.417656 -20.552282
v 13.516912 -18.417652 -17.010242
v -13.857545 -18.417660 -20.552292
v -13.857547 -18.417664 -16.663776
v -9.224546 -18.417664 -16.663774
v 13.157887 -18.417648 -16.663771
v 13.157887 -18.417656 -5.422852
v 13.516911 -18.417656 -5.422852
v -13.902666 -18.417656 10.364217
v -13.902664 -18.417664 -16.663774
v 4.609423 -18.417664 -16.663771
v 4.609423 -18.417664 -17.010231
v -13.893728 -17.742474 10.364215
v 17.129341 -18.417660 10.364209
v 13.157883 -18.417660 10.364209
v 13.166823 -17.742470 10.364205
v 13.166824 -17.742470 10.394406
v -13.893728 -17.742477 10.394401
v 13.095891 -23.099384 10.394406
v 4.057268 -18.417664 -16.663771
v 13.450726 -20.134369 -7.346011
v 13.450726 -21.849651 -7.613959
v 13.450726 -20.305069 -17.501680
v 13.450726 -18.589790 -17.233732
v -13.930165 -20.305069 -17.501680
v -13.930165 -18.589787 -17.233732
v -13.930165 -21.849648 -7.613959
v -13.930165 -20.134365 -7.346012
v 13.680197 -20.521992 10.698289
v 13.412249 -18.806709 10.698289
v 3.524528 -20.351295 10.698289
v 3.792475 -22.066578 10.698293
v 3.524527 -20.351295 -16.682598
v 3.792474 -22.066574 -16.682598
v 13.412248 -18.806709 -16.682596
v 13.680196 -20.521988 -16.682596
v -14.834299 -20.521992 -16.682594
v -14.566353 -18.806709 -16.682594
v -4.678631 -20.351295 -16.682598
v -4.946577 -22.066574 -16.682598
v -4.678631 -20.351295 10.698289
v -4.946577 -22.066574 10.698289
v -14.566353 -18.806709 10.698289
v -14.834299 -20.521992 10.698289
v 13.414421 -20.567797 11.393428
v 13.414421 -18.567797 11.393428
v 13.414421 -20.567797 -17.144234
v 13.414421 -18.567797 -17.144234
v 15.414421 -20.567797 11.393428
v 15.414421 -18.567797 11.393428
v 15.414421 -20.567797 -17.144234
v 15.414421 -18.567797 -17.144234
vt 0.000000 0.000000
vt 0.000000 0.000000
vt 0.000000 0.000000
vt 0.000000 0.000000
vt 0.000000 0.000000
vt 0.000000 0.000000
vt 0.000000 0.000000
vt 0.000000 0.000000
vt 0.306939 0.802918
vt 0.338854 0.770780
vt 0.338854 0.802918
vt 0.275024 0.835056
vt 0.306932 0.802918
vt 0.306932 0.835056
vt 0.275024 0.802918
vt 0.306939 0.770780
vt 0.338845 0.802918
vt 0.306939 0.835056
vt 0.306939 0.802918
vt 0.413714 0.794702
vt 0.445629 0.826840
vt 0.413714 0.826840
vt 0.271105 0.838588
vt 0.243004 0.806450
vt 0.271105 0.806450
vt 0.105716 0.558347
vt 0.070477 0.895118
vt 0.070477 0.574708
vt 0.348292 0.770780
vt 0.349228 0.809526
vt 0.348292 0.809526
vt 0.000000 0.558347
vt 0.035239 0.895118
vt 0.000000 0.878757
vt 0.506161 0.808298
vt 0.505225 0.769544
vt 0.506161 0.769544
vt 0.969994 0.558196
vt 0.969058 0.825606
vt 0.969058 0.558196
vt 0.533148 0.558347
vt 0.532212 0.877474
vt 0.532212 0.558347
vt 0.035239 0.895118
vt 0.070477 0.558347
vt 0.070477 0.878757
vt 0.271105 0.806450
vt 0.272041 0.845196
vt 0.271105 0.845196
vt 0.140955 0.574708
vt 0.105716 0.878757
vt 0.105716 0.558347
vt 0.504290 0.769544
vt 0.505225 0.808298
vt 0.504290 0.808298
vt 1.000000 0.000000
vt 0.999064 0.267410
vt 0.999064 0.000000
vt 0.936583 0.877344
vt 0.937519 0.558217
vt 0.937519 0.877344
vt 0.806367 0.000000
vt 0.841790 0.742717
vt 0.806367 0.742717
vt 0.873809 0.742544
vt 0.841790 0.000000
vt 0.873809 0.000000
vt 0.806367 0.742717
vt 0.770944 0.000000
vt 0.806367 0.000000
vt 0.873809 0.742516
vt 0.905829 0.000000
vt 0.905829 0.742516
vt 0.243004 0.806450
vt 0.275024 0.770780
vt 0.275024 0.806450
vt 0.477141 0.823454
vt 0.445952 0.791210
vt 0.477141 0.791210
vt 0.905829 0.822688
vt 0.928111 0.558217
vt 0.928111 0.822688
vt 0.404435 0.822818
vt 0.382158 0.854595
vt 0.382158 0.822818
vt 0.506381 0.822818
vt 0.528663 0.558347
vt 0.528663 0.822818
vt 0.506381 0.854595
vt 0.528657 0.822818
vt 0.528657 0.854595
vt 0.413714 0.558347
vt 0.382158 0.822818
vt 0.382158 0.558347
vt 0.477509 0.791210
vt 0.445952 0.558347
vt 0.477509 0.558347
vt 0.797725 0.749294
vt 0.824506 0.823378
vt 0.797725 0.829955
vt 0.243004 0.854227
vt 0.217492 0.826508
vt 0.243004 0.826508
vt 0.851287 0.749294
vt 0.824506 0.823378
vt 0.824506 0.742717
vt 0.471465 0.823454
vt 0.445952 0.851175
vt 0.445952 0.823454
vt 0.217492 0.770780
vt 0.191979 0.847493
vt 0.191979 0.770780
vt 0.140954 0.850141
vt 0.166467 0.770780
vt 0.166467 0.850141
vt 0.934843 0.574332
vt 0.934843 0.999853
vt 0.933103 0.988960
vt 0.504290 0.808298
vt 0.505915 0.819737
vt 0.504290 0.819737
vt 0.547134 0.512940
vt 0.533148 0.471900
vt 0.770944 0.471900
vt 0.999064 0.000000
vt 0.970306 0.471790
vt 0.970306 0.000000
vt 0.756958 0.041040
vt 0.546049 0.041040
vt 0.533148 0.000000
vt 0.353185 0.588516
vt 0.349919 0.826783
vt 0.349919 0.558347
vt 0.445952 0.558347
vt 0.444212 0.781944
vt 0.444212 0.571105
vt 0.028375 0.517307
vt 0.239284 0.517307
vt 0.266574 0.558347
vt 0.938068 0.000000
vt 0.970306 0.558196
vt 0.938068 0.558196
vt 0.533148 0.558347
vt 0.266574 0.558347
vt 0.504773 0.517307
vt 0.938067 0.000000
vt 0.934702 0.041030
vt 0.905829 0.000000
vt 0.415454 0.781944
vt 0.445952 0.794702
vt 0.413714 0.794702
vt 0.999064 0.471790
vt 0.971932 0.512819
vt 0.970306 0.471790
vt 0.938068 0.802348
vt 0.938068 0.558196
vt 0.952456 0.569092
vt 0.770944 0.829955
vt 0.785333 0.855639
vt 0.770944 0.855639
vt 0.481209 0.584910
vt 0.480875 0.661699
vt 0.480874 0.582544
vt 0.934702 0.482683
vt 0.938068 0.558217
vt 0.905829 0.558217
vt 0.293864 0.075551
vt 0.266574 0.000000
vt 0.504773 0.075551
vt 0.891058 0.744883
vt 0.886699 0.744883
vt 0.891016 0.742516
vt 0.530255 0.569240
vt 0.528671 0.558347
vt 0.531995 0.558347
vt 0.273667 0.817889
vt 0.272041 0.806450
vt 0.273667 0.806450
vt 0.894382 0.954899
vt 0.896122 0.742516
vt 0.896122 0.954899
vt 0.266574 0.000000
vt 0.239284 0.075552
vt 0.028375 0.075551
vt 0.934843 0.770599
vt 0.936583 0.558217
vt 0.936583 0.770599
vt 0.965358 0.558196
vt 0.967098 0.569090
vt 0.965358 0.802349
vt 0.481209 0.769544
vt 0.477509 0.769544
vt 0.797443 0.857311
vt 0.797647 0.857311
vt 0.797647 0.858914
vt 0.929737 0.569110
vt 0.928111 0.558217
vt 0.931477 0.558217
vt 0.378399 0.588516
vt 0.382158 0.558347
vt 0.382158 0.826783
vt 0.874324 0.744883
vt 0.873809 0.744883
vt 0.873809 0.742516
vt 0.797725 0.742717
vt 0.770944 0.829955
vt 0.770944 0.749294
vt 0.375432 0.826783
vt 0.349919 0.854412
vt 0.349919 0.826783
vt 0.504290 0.776120
vt 0.477509 0.850205
vt 0.477509 0.769544
vt 0.439226 0.854464
vt 0.413714 0.826840
vt 0.439226 0.826840
vt 0.217492 0.826508
vt 0.243004 0.770780
vt 0.243004 0.826508
vt 0.191979 0.770780
vt 0.166467 0.847493
vt 0.166467 0.770780
vt 0.851287 0.822901
vt 0.860725 0.820060
vt 0.860725 0.847734
vt 0.165707 0.770780
vt 0.193196 0.558347
vt 0.193196 0.770780
vt 0.348292 0.798455
vt 0.338854 0.795614
vt 0.348292 0.770780
vt 0.297678 0.558347
vt 0.270190 0.770780
vt 0.270190 0.558347
vt 0.245437 0.558347
vt 0.245437 0.770780
vt 0.140955 0.558347
vt 0.165707 0.558347
vt 0.860725 0.767552
vt 0.851287 0.770392
vt 0.851287 0.742717
vt 0.193196 0.558347
vt 0.220684 0.770780
vt 0.193196 0.770780
vt 0.348292 0.850963
vt 0.338854 0.848123
vt 0.348292 0.823289
vt 0.297678 0.770780
vt 0.325166 0.558347
vt 0.325166 0.770780
vt 0.349919 0.770780
vt 0.349919 0.558347
vt 0.220684 0.558347
vt 0.245437 0.770780
vt 0.306939 0.770780
vt 0.275024 0.770780
vt 0.338845 0.835056
vt 0.445629 0.794702
vt 0.243004 0.838588
vt 0.105716 0.878757
vt 0.349228 0.770780
vt 0.035239 0.574708
vt 0.505225 0.808298
vt 0.969994 0.825606
vt 0.533148 0.877474
vt 0.035239 0.574708
vt 0.272041 0.806450
vt 0.140954 0.895118
vt 0.505225 0.769544
vt 1.000000 0.267410
vt 0.936583 0.558217
vt 0.841790 0.000000
vt 0.841790 0.742544
vt 0.770944 0.742717
vt 0.873809 0.000000
vt 0.243004 0.770780
vt 0.445952 0.823454
vt 0.905829 0.558217
vt 0.404435 0.854595
vt 0.506381 0.558347
vt 0.506381 0.822818
vt 0.413714 0.822818
vt 0.445952 0.791210
vt 0.824506 0.742717
vt 0.217492 0.854227
vt 0.851287 0.829955
vt 0.471465 0.851175
vt 0.217492 0.847493
vt 0.140955 0.770780
vt 0.931477 0.999853
vt 0.931477 0.988960
vt 0.933103 0.558217
vt 0.934843 0.558217
vt 0.505915 0.808298
vt 0.770944 0.943800
vt 0.758043 0.512940
vt 0.758043 0.943800
vt 0.547134 0.943800
vt 0.533148 0.943800
vt 0.999064 0.471790
vt 0.770944 0.000000
vt 0.770944 0.471900
vt 0.756958 0.471900
vt 0.546049 0.471900
vt 0.533148 0.471900
vt 0.353185 0.798445
vt 0.415454 0.571105
vt 0.413714 0.558347
vt 0.000000 0.558347
vt 0.028375 0.319761
vt 0.970306 0.000000
vt 0.533148 0.000000
vt 0.293864 0.501187
vt 0.293864 0.517307
vt 0.934702 0.238588
vt 0.909195 0.041030
vt 0.999064 0.943562
vt 0.997438 0.512819
vt 0.997438 0.943562
vt 0.971932 0.943562
vt 0.970306 0.943562
vt 0.965358 0.558196
vt 0.965358 0.569092
vt 0.952456 0.999952
vt 0.938068 0.999952
vt 0.785333 0.829955
vt 0.480874 0.558347
vt 0.506381 0.558347
vt 0.502064 0.584910
vt 0.506381 0.582544
vt 0.506381 0.584910
vt 0.481209 0.661699
vt 0.909195 0.482683
vt 0.894382 0.742516
vt 0.894382 0.929516
vt 0.891058 0.929517
vt 0.531995 1.000000
vt 0.530255 1.000000
vt 0.528663 0.569240
vt 0.272041 0.817889
vt 0.894382 0.742516
vt 0.000000 0.000000
vt 0.934843 0.558217
vt 0.969058 0.558196
vt 0.969050 0.569090
vt 0.967098 0.999849
vt 0.965358 0.999849
vt 0.477509 0.582544
vt 0.785333 0.829955
vt 0.797647 0.829955
vt 0.797443 0.831920
vt 0.797647 0.831920
vt 0.785333 0.858914
vt 0.931477 0.999853
vt 0.929737 0.999853
vt 0.928111 0.569110
vt 0.378399 0.798445
vt 0.797725 0.823378
vt 0.375432 0.854412
vt 0.504290 0.856781
vt 0.413714 0.854464
vt 0.217492 0.770780
vt 0.191979 0.847493
vt 0.851287 0.795227
vt 0.338854 0.823289
vt 0.297678 0.770780
vt 0.140954 0.770780
vt 0.860725 0.795227
vt 0.338854 0.875797
vt 0.297678 0.558347
vt 0.245437 0.558347
vn -1.0000 0.0000 0.0000
vn 0.0000 0.0000 -1.0000
vn 1.0000 0.0000 0.0000
vn 0.0000 0.0000 1.0000
vn 0.0000 -1.0000 0.0000
vn 0.0000 1.0000 0.0000
vn 0.0000 -0.3025 -0.9532
vn 0.0000 0.3025 0.9532
vn 0.0000 -0.9532 0.3025
vn 0.0000 0.9532 -0.3025
vn 0.0000 -0.1543 -0.9880
vn 0.0000 0.1543 0.9880
vn 0.0000 -0.9880 0.1543
vn 0.0000 0.9880 -0.1543
vn 0.0000 1.0000 0.0001
vn 0.0000 0.1543 -0.9880
vn -0.0000 -0.1543 0.9880
vn 0.0000 0.9880 0.1543
vn -0.0000 -0.9880 -0.1543
vn -0.9880 -0.1543 0.0000
vn 0.9880 0.1543 -0.0000
vn 0.1543 -0.9880 -0.0000
vn -0.1543 0.9880 -0.0000
vn 0.9880 -0.1543 0.0000
vn -0.9880 0.1543 0.0000
vn -0.1543 -0.9880 0.0000
vn 0.1543 0.9880 0.0000
usemtl Material.004
s off
f 140/1/1 141/2/1 139/3/1
f 142/4/2 145/5/2 141/2/2
f 146/6/3 143/7/3 145/5/3
f 144/8/4 139/3/4 143/7/4
f 145/5/5 139/3/5 141/2/5
f 142/4/6 144/8/6 146/6/6
f 140/1/1 142/4/1 141/2/1
f 142/4/2 146/6/2 145/5/2
f 146/6/3 144/8/3 143/7/3
f 144/8/4 140/1/4 139/3/4
f 145/5/5 143/7/5 139/3/5
f 142/4/6 140/1/6 144/8/6
s 1
f 2/9/1 4/10/1 1/11/1
f 3/12/2 6/13/2 4/14/2
f 5/15/3 8/16/3 6/13/3
f 7/17/4 1/18/4 8/19/4
f 6/20/5 1/21/5 4/22/5
f 3/23/6 7/24/6 5/25/6
f 10/26/1 12/27/1 9/28/1
f 11/29/7 14/30/7 12/31/7
f 14/32/3 15/33/3 16/34/3
f 15/35/8 9/36/8 16/37/8
f 14/38/9 9/39/9 12/40/9
f 11/41/10 15/42/10 13/43/10
f 18/44/1 20/45/1 17/46/1
f 19/47/7 22/48/7 20/49/7
f 21/50/3 24/51/3 22/52/3
f 23/53/8 17/54/8 24/55/8
f 22/56/9 17/57/9 20/58/9
f 19/59/10 23/60/10 21/61/10
f 26/62/1 28/63/1 25/64/1
f 27/65/2 30/66/2 28/67/2
f 29/68/3 32/69/3 30/70/3
f 32/71/4 26/72/4 25/73/4
f 30/74/5 25/75/5 28/76/5
f 27/77/6 31/78/6 29/79/6
f 34/80/1 36/81/1 33/82/1
f 35/83/2 38/84/2 36/85/2
f 37/86/3 40/87/3 38/88/3
f 39/89/4 33/90/4 40/91/4
f 38/92/5 33/93/5 36/94/5
f 37/95/6 34/96/6 39/97/6
f 41/98/1 43/99/1 44/100/1
f 43/101/11 46/102/11 44/103/11
f 45/104/3 48/105/3 46/106/3
f 48/107/12 42/108/12 41/109/12
f 46/110/13 41/111/13 44/112/13
f 43/113/14 47/114/14 45/115/14
f 54/116/4 55/117/4 51/118/4
f 56/119/6 58/120/6 59/121/6
f 61/122/1 64/123/1 65/124/1
f 66/125/2 64/126/2 63/127/2
f 69/128/3 52/129/3 71/130/3
f 74/131/5 76/132/5 77/133/5
f 79/134/6 67/135/6 71/136/6
f 83/137/3 84/138/3 78/139/3
f 81/140/4 76/141/4 86/142/4
f 80/143/1 79/144/1 87/145/1
f 78/146/2 90/147/2 79/148/2
f 64/149/6 80/150/6 81/151/6
f 71/152/4 94/153/4 65/154/4
f 89/155/1 95/156/1 57/157/1
f 90/158/5 93/159/5 91/160/5
f 100/161/6 102/162/6 96/163/6
f 95/164/2 72/165/2 77/166/2
f 55/167/1 77/168/1 88/169/1
f 104/170/6 99/171/6 49/172/6
f 68/173/2 103/174/2 88/175/2
f 51/176/6 92/177/6 70/178/6
f 52/179/5 87/180/5 53/181/5
f 72/182/3 85/183/3 108/184/3
f 84/185/5 61/186/5 60/187/5
f 108/188/2 62/189/2 82/190/2
f 102/162/6 109/191/6 108/192/6
f 112/193/6 107/194/15 68/195/6
f 59/196/4 96/197/4 85/198/4
f 73/199/5 72/200/5 86/201/5
f 114/202/6 105/203/6 106/204/6
f 116/205/3 118/206/3 115/207/3
f 118/208/16 119/209/16 120/210/16
f 119/211/1 122/212/1 120/213/1
f 121/214/17 115/215/17 122/216/17
f 120/217/18 115/218/18 118/219/18
f 117/220/19 121/221/19 119/222/19
f 123/223/4 125/224/4 126/225/4
f 125/226/20 128/227/20 126/228/20
f 127/229/2 130/230/2 128/231/2
f 129/232/21 123/233/21 130/234/21
f 128/235/22 123/233/22 126/236/22
f 125/226/23 129/237/23 127/238/23
f 131/239/2 133/240/2 134/241/2
f 134/242/24 135/243/24 136/244/24
f 135/245/4 138/246/4 136/247/4
f 137/248/25 131/249/25 138/250/25
f 136/251/26 131/249/26 134/252/26
f 133/253/27 137/254/27 135/243/27
f 2/9/1 3/255/1 4/10/1
f 3/12/2 5/15/2 6/13/2
f 5/15/3 7/256/3 8/16/3
f 7/17/4 2/257/4 1/18/4
f 6/20/5 8/258/5 1/21/5
f 3/23/6 2/259/6 7/24/6
f 10/26/1 11/260/1 12/27/1
f 11/29/7 13/261/7 14/30/7
f 14/32/3 13/262/3 15/33/3
f 15/35/8 10/263/8 9/36/8
f 14/38/9 16/264/9 9/39/9
f 11/41/10 10/265/10 15/42/10
f 18/44/1 19/266/1 20/45/1
f 19/47/7 21/267/7 22/48/7
f 21/50/3 23/268/3 24/51/3
f 23/53/8 18/269/8 17/54/8
f 22/56/9 24/270/9 17/57/9
f 19/59/10 18/271/10 23/60/10
f 26/62/1 27/272/1 28/63/1
f 27/65/2 29/273/2 30/66/2
f 29/68/3 31/274/3 32/69/3
f 32/71/4 31/275/4 26/72/4
f 30/74/5 32/276/5 25/75/5
f 27/77/6 26/277/6 31/78/6
f 34/80/1 35/278/1 36/81/1
f 35/83/2 37/279/2 38/84/2
f 37/86/3 39/280/3 40/87/3
f 39/89/4 34/281/4 33/90/4
f 38/92/5 40/282/5 33/93/5
f 37/95/6 35/283/6 34/96/6
f 41/98/1 42/284/1 43/99/1
f 43/101/11 45/285/11 46/102/11
f 45/104/3 47/286/3 48/105/3
f 48/107/12 47/287/12 42/108/12
f 46/110/13 48/288/13 41/111/13
f 43/113/14 42/289/14 47/114/14
f 55/117/4 49/290/4 51/118/4
f 49/290/4 50/291/4 51/118/4
f 51/118/4 52/292/4 54/116/4
f 52/292/4 53/293/4 54/116/4
f 56/119/6 57/294/6 58/120/6
f 65/124/1 56/295/1 60/296/1
f 56/295/1 59/297/1 60/296/1
f 62/298/1 63/299/1 61/122/1
f 63/299/1 64/123/1 61/122/1
f 65/124/1 60/296/1 61/122/1
f 66/125/2 67/300/2 64/126/2
f 67/301/3 66/302/3 69/128/3
f 66/302/3 68/303/3 69/128/3
f 51/304/3 70/305/3 52/129/3
f 70/305/3 71/130/3 52/129/3
f 67/301/3 69/128/3 71/130/3
f 77/133/5 72/200/5 73/199/5
f 74/131/5 75/306/5 76/132/5
f 77/133/5 73/199/5 74/131/5
f 65/307/6 78/308/6 71/136/6
f 78/308/6 79/134/6 71/136/6
f 79/134/6 80/150/6 67/135/6
f 85/183/3 72/182/3 78/139/3
f 81/309/3 82/310/3 83/137/3
f 84/138/3 85/183/3 78/139/3
f 81/309/3 83/137/3 78/139/3
f 81/140/4 80/311/4 76/141/4
f 88/169/1 76/312/1 80/143/1
f 79/144/1 54/313/1 53/314/1
f 87/145/1 88/169/1 80/143/1
f 79/144/1 53/314/1 87/145/1
f 78/146/2 89/315/2 90/147/2
f 90/147/2 91/316/2 79/148/2
f 78/308/6 65/307/6 64/149/6
f 64/149/6 67/135/6 80/150/6
f 81/151/6 78/308/6 64/149/6
f 71/152/4 70/317/4 93/318/4
f 70/317/4 92/319/4 93/318/4
f 57/320/4 56/321/4 94/153/4
f 56/321/4 65/154/4 94/153/4
f 71/152/4 93/318/4 94/153/4
f 95/156/1 96/322/1 57/157/1
f 96/322/1 58/323/1 57/157/1
f 57/157/1 94/324/1 89/155/1
f 94/324/1 90/325/1 89/155/1
f 90/158/5 94/326/5 93/159/5
f 95/327/6 97/328/6 99/329/6
f 97/328/6 49/330/6 99/329/6
f 49/330/6 98/331/6 99/329/6
f 100/161/6 101/332/6 102/162/6
f 99/329/6 100/161/6 95/327/6
f 96/163/6 95/327/6 100/161/6
f 77/166/2 79/148/2 97/333/2
f 79/148/2 91/316/2 97/333/2
f 89/315/2 78/146/2 72/165/2
f 77/166/2 97/333/2 95/164/2
f 95/164/2 89/315/2 72/165/2
f 55/167/1 54/313/1 79/144/1
f 77/168/1 76/312/1 88/169/1
f 55/167/1 79/144/1 77/168/1
f 55/334/6 88/335/6 104/170/6
f 88/335/6 103/336/6 104/170/6
f 105/203/6 106/204/6 99/171/6
f 106/204/6 49/172/6 99/171/6
f 49/172/6 55/334/6 104/170/6
f 88/175/2 87/337/2 68/173/2
f 87/337/2 69/338/2 68/173/2
f 68/173/2 107/339/2 103/174/2
f 51/176/6 50/340/6 92/177/6
f 52/179/5 69/341/5 87/180/5
f 108/184/3 82/310/3 86/342/3
f 82/310/3 81/309/3 86/342/3
f 86/342/3 72/182/3 108/184/3
f 84/185/5 83/343/5 61/186/5
f 108/188/2 109/344/2 62/189/2
f 109/344/2 110/345/2 62/189/2
f 62/189/2 61/346/2 82/190/2
f 61/346/2 83/347/2 82/190/2
f 108/192/6 85/348/6 102/162/6
f 85/348/6 96/163/6 102/162/6
f 102/162/6 101/332/6 109/191/6
f 63/349/6 62/350/6 111/351/6
f 62/350/6 110/352/15 111/351/6
f 68/195/6 66/353/6 112/193/6
f 66/353/6 63/349/6 111/351/6
f 112/193/6 66/353/6 111/351/6
f 85/198/4 84/354/4 59/196/4
f 84/354/4 60/355/4 59/196/4
f 59/196/4 58/356/4 96/197/4
f 86/201/5 76/132/5 113/357/5
f 76/132/5 75/306/5 113/357/5
f 113/357/5 73/199/5 86/201/5
f 116/205/3 117/358/3 118/206/3
f 118/208/16 117/359/16 119/209/16
f 119/211/1 121/360/1 122/212/1
f 121/214/17 116/361/17 115/215/17
f 120/217/18 122/362/18 115/218/18
f 117/220/19 116/363/19 121/221/19
f 123/223/4 124/364/4 125/224/4
f 125/226/20 127/238/20 128/227/20
f 127/229/2 129/365/2 130/230/2
f 129/232/21 124/366/21 123/233/21
f 128/235/22 130/234/22 123/233/22
f 125/226/23 124/367/23 129/237/23
f 131/239/2 132/368/2 133/240/2
f 134/242/24 133/253/24 135/243/24
f 135/245/4 137/369/4 138/246/4
f 137/248/25 132/370/25 131/249/25
f 136/251/26 138/250/26 131/249/26
f 133/253/27 132/371/27 137/254/27
