# Blender v2.79 (sub 0) OBJ File: 'FunBox.blend'
# www.blender.org
mtllib FunBox.mtl
o Cube
v 3.734125 -1.005338 10.564222
v 3.518490 -1.005338 -10.632288
v 3.518490 -1.005325 10.564235
v 10.415714 -1.005333 -1.659976
v -10.780809 -1.005333 -1.659977
v 11.766825 -0.482523 -11.928906
v 11.766825 -0.482523 11.969835
v -12.131919 -0.482523 11.969832
v -12.131913 -0.482523 -11.928911
v 13.212881 -4.630474 -13.374963
v 13.212881 -4.630474 13.415892
v -13.577976 -4.630474 13.415889
v -13.577970 -4.630474 -13.374969
v 13.212888 22.160381 -13.374956
v 13.212873 22.160381 13.415899
v -13.577979 22.160381 13.415887
v -13.577973 22.160381 -13.374964
v 11.766817 22.160381 11.969842
v 11.766829 22.160378 -11.928901
v -12.131922 22.160381 11.969831
v -12.131917 22.160381 -11.928907
v 10.415713 20.191189 -13.374957
v 10.415717 10.709653 -13.374959
v 10.415713 20.191189 -11.928903
v 10.415715 -1.005333 -13.374963
v 10.415715 -0.482523 -11.928907
v -10.780808 20.191189 -13.374963
v -10.780809 20.191189 -11.928905
v -10.780807 -1.005333 -13.374967
v -10.780805 -0.482523 -11.928910
v -13.577977 20.191189 10.564226
v -12.131920 20.191189 10.564226
v 3.518490 -0.482524 10.564234
v -13.577976 -1.005333 10.564230
v -12.131918 -0.482523 10.564229
v 3.518490 -1.005333 -9.562976
v -5.453822 -1.005336 -1.659978
v 3.518490 -1.005333 -1.659976
v -13.577971 -1.005335 -10.632292
v -10.780807 -1.005335 -10.632292
v -12.131913 -0.482523 -10.632293
v -10.780806 -0.482523 -10.632292
v -13.577972 20.191185 -10.632297
v -12.131916 20.191185 -10.632297
v -13.577973 19.417717 -10.632298
v -10.780807 -1.005335 -10.632292
v -10.780807 -1.005335 -10.632292
v 3.518490 -1.005333 -9.562976
v -5.453822 -1.005336 -1.659978
v 3.734125 -0.482522 10.564223
v 13.212874 20.191185 10.564231
v 11.766819 20.191185 10.564232
v 13.212888 20.191193 -10.632291
v 11.766831 20.191193 -10.632291
v 13.212883 -1.005338 10.564223
v 13.212877 10.712438 10.564231
v 11.766825 -0.482523 10.564220
v 3.734123 -1.005330 -1.659976
v 10.415715 -1.005328 -10.632297
v 13.212881 -1.005329 -10.632297
v 10.415715 -0.482523 -10.632297
v 11.766825 -0.482523 -10.632297
v 3.734123 -1.005330 -1.659976
v 10.415715 -1.005328 -10.632297
v 3.518490 -0.956022 -1.659976
v 3.734124 -0.956022 10.453795
v 3.734123 -0.956022 -1.659976
v 3.518489 -0.956022 10.453795
v 3.734125 -0.482522 10.453795
v 3.518490 -0.482524 10.453795
vt 0.519402 0.538068
vt 0.518916 0.735143
vt 0.519402 0.615877
vt 0.891279 0.884694
vt 0.904582 0.884694
vt 0.891279 0.889842
vt 0.906674 0.000000
vt 0.892437 0.005147
vt 0.879670 0.000000
vt 0.527021 0.749533
vt 0.514254 0.736230
vt 0.527021 0.736230
vt 0.283165 0.748996
vt 0.263777 0.762835
vt 0.263777 0.527540
vt 0.750491 0.734361
vt 0.527554 0.499065
vt 0.750491 0.499065
vt 0.546942 0.277609
vt 0.546942 0.486299
vt 0.527554 0.499065
vt 0.263777 0.263770
vt 0.000000 0.527540
vt 0.000000 0.263770
vt 0.263777 0.263770
vt 0.513316 0.278007
vt 0.278015 0.278007
vt 0.019388 0.028076
vt 0.019388 0.236767
vt 0.000000 0.263770
vt 0.263777 0.000000
vt 0.527554 0.263770
vt 0.000000 0.791309
vt 0.000000 0.527540
vt 0.019388 0.763233
vt 0.527554 0.000000
vt 0.546942 0.027540
vt 0.527554 0.263770
vt 0.527554 0.527540
vt 0.263777 0.527540
vt 0.513316 0.513302
vt 0.527554 0.734361
vt 0.546942 0.956354
vt 0.527554 0.969656
vt 0.494464 0.971526
vt 0.467460 0.971526
vt 0.480226 0.966378
vt 0.514254 0.736230
vt 0.500017 0.944921
vt 0.500017 0.736230
vt 0.379120 0.971526
vt 0.290781 0.971526
vt 0.301309 0.903619
vt 0.755639 0.027540
vt 0.791331 0.000000
vt 0.791331 0.263770
vt 0.228085 0.554543
vt 0.263777 0.527540
vt 0.228085 0.763233
vt 0.000000 0.000000
vt 0.000000 0.000000
vt 0.000000 0.000000
vt 0.918819 0.472461
vt 0.918819 0.670623
vt 0.778031 0.681151
vt 0.904582 0.268917
vt 0.750491 0.263770
vt 0.918819 0.263770
vt 0.499480 0.736230
vt 0.486714 0.749533
vt 0.486714 0.736230
vt 0.918819 0.499065
vt 0.933057 0.707756
vt 0.918819 0.707756
vt 0.290781 0.903619
vt 0.379120 0.762835
vt 0.379120 0.815282
vt 0.263777 0.263770
vt 0.228085 0.236767
vt 0.228085 0.028076
vt 0.524549 0.647893
vt 0.524064 0.647893
vt 0.524064 0.528627
vt 0.918819 0.916447
vt 0.933057 0.707756
vt 0.933057 0.916447
vt 0.093326 1.000000
vt 0.079088 0.994853
vt 0.093326 0.884632
vt 0.934215 0.088337
vt 1.000000 0.208691
vt 0.906674 0.208691
vt 0.933746 0.499065
vt 0.919906 0.419979
vt 0.919907 0.417856
vt 0.500017 0.532687
vt 0.486714 0.527540
vt 0.514254 0.527540
vt 0.527158 0.593323
vt 0.527158 0.593323
vt 0.527158 0.595446
vt 0.524549 0.646806
vt 0.526672 0.527540
vt 0.526672 0.646806
vt 0.526672 0.651468
vt 0.524549 0.646806
vt 0.526672 0.646806
vt 0.519402 0.538068
vt 0.519402 0.527540
vt 0.519402 0.736230
vt 0.514254 0.736230
vt 0.514254 0.735143
vt 0.518916 0.615877
vt 0.750491 0.889842
vt 0.891279 0.889842
vt 0.904582 0.681151
vt 0.918819 0.688766
vt 0.918819 0.681151
vt 0.918819 0.889842
vt 0.791331 0.000000
vt 0.879670 0.000000
vt 0.906674 0.208691
vt 0.892437 0.208691
vt 0.879670 0.005147
vt 0.514254 0.749533
vt 0.486714 0.527540
vt 0.283165 0.540306
vt 0.486714 0.540305
vt 0.486714 0.748996
vt 0.486714 0.762835
vt 0.527554 0.734361
vt 0.527554 0.263770
vt 0.750491 0.263770
vt 0.750491 0.277609
vt 0.750491 0.486299
vt 0.750491 0.499065
vt 0.263777 0.527540
vt 0.278015 0.513303
vt 0.527554 0.263770
vt 0.000000 0.000000
vt 0.112714 0.028076
vt 0.527554 0.000000
vt 0.263777 0.791309
vt 0.027004 0.554543
vt 0.019388 0.554543
vt 0.640295 0.027540
vt 0.546942 0.236230
vt 0.750491 0.734361
vt 0.546942 0.747663
vt 0.750491 0.747663
vt 0.750491 0.956354
vt 0.750491 0.969656
vt 0.467460 0.971526
vt 0.480226 0.762835
vt 0.494463 0.856186
vt 0.494463 0.762835
vt 0.467460 0.966378
vt 0.514254 0.944921
vt 0.263777 0.971526
vt 0.263777 0.762835
vt 0.290781 0.762835
vt 0.379120 0.815282
vt 0.379120 0.903619
vt 0.379120 0.905742
vt 0.755639 0.236230
vt 0.000000 0.000000
vt 0.750491 0.681151
vt 0.750491 0.472461
vt 0.918819 0.681151
vt 0.918819 0.472461
vt 0.904582 0.472461
vt 0.750491 0.268917
vt 0.499480 0.749533
vt 0.933057 0.499065
vt 0.263777 0.000000
vt 0.519402 0.528627
vt 0.519402 0.527540
vt 0.524549 0.527540
vt 0.918819 0.707756
vt 0.000000 1.000000
vt 0.000000 0.994853
vt 0.079088 0.791309
vt 0.093326 0.791309
vt 0.906674 0.000000
vt 0.934214 0.000000
vt 1.000000 0.088337
vt 0.919906 0.499065
vt 0.918819 0.419979
vt 0.918819 0.417856
vt 0.919907 0.263770
vt 0.933746 0.263770
vt 0.514254 0.736230
vt 0.500017 0.736230
vt 0.486714 0.532687
vt 0.526672 0.595446
vt 0.526672 0.593323
vt 0.527158 0.527540
vt 0.524549 0.527540
vt 0.524549 0.651468
vn 1.0000 -0.0000 0.0000
vn 0.0000 0.0000 1.0000
vn 0.0000 1.0000 0.0000
vn -1.0000 -0.0000 -0.0000
vn 0.0000 0.0000 -1.0000
vn 0.0000 -1.0000 0.0000
vn -0.0000 1.0000 0.0001
usemtl Material
s off
f 48/1/1 68/2/1 38/3/1
f 42/4/2 41/5/2 46/6/2
f 29/7/1 30/8/1 40/9/1
f 26/10/3 62/11/3 6/12/3
f 52/13/4 18/14/4 19/15/4
f 8/16/5 18/17/5 7/18/5
f 32/19/1 44/20/1 21/21/1
f 11/22/6 13/23/6 10/24/6
f 17/25/3 20/26/3 21/27/3
f 51/28/1 53/29/1 14/30/1
f 15/31/2 12/32/2 11/22/2
f 16/33/4 17/34/4 31/35/4
f 14/36/5 22/37/5 17/38/5
f 15/39/3 14/40/3 18/41/3
f 21/42/2 24/43/2 19/44/2
f 25/45/4 64/46/4 26/47/4
f 24/48/6 27/49/6 22/50/6
f 4/51/3 64/52/3 36/53/3
f 25/54/5 10/55/5 13/56/5
f 39/57/4 13/58/4 34/59/4
f 37/60/2 49/61/2 5/62/2
f 3/63/3 48/64/3 46/65/3
f 35/66/5 3/67/5 34/68/5
f 41/69/3 30/70/3 9/71/3
f 43/72/6 32/73/6 31/74/6
f 2/75/3 5/76/3 49/77/3
f 10/78/1 60/79/1 55/80/1
f 58/81/1 67/82/1 66/83/1
f 53/84/6 52/85/6 54/86/6
f 55/87/5 57/88/5 56/89/5
f 4/90/3 1/91/3 55/92/3
f 7/93/7 50/94/7 33/95/7
f 62/96/2 59/97/2 60/98/2
f 58/99/2 63/100/2 38/101/2
f 66/102/3 65/103/3 68/104/3
f 66/105/5 70/106/5 69/107/5
f 36/108/2 2/109/2 48/1/2
f 3/110/4 33/111/4 68/2/4
f 33/111/4 70/112/4 68/2/4
f 68/2/4 65/113/4 38/3/4
f 38/3/2 36/108/2 48/1/2
f 48/1/4 3/110/4 68/2/4
f 46/6/2 2/114/2 40/115/2
f 41/5/2 44/116/2 45/117/2
f 44/116/2 43/118/2 45/117/2
f 45/117/2 39/119/2 41/5/2
f 46/6/2 40/115/2 42/4/2
f 41/5/2 39/119/2 46/6/2
f 40/9/2 5/120/2 47/121/2
f 29/7/1 27/122/1 30/8/1
f 27/122/1 28/123/1 30/8/1
f 30/8/1 42/124/1 40/9/1
f 40/9/2 47/121/2 29/7/2
f 26/10/3 61/125/3 62/11/3
f 19/15/4 6/126/4 54/127/4
f 6/126/4 62/128/4 54/127/4
f 57/129/4 7/130/4 52/13/4
f 7/130/4 18/14/4 52/13/4
f 19/15/4 54/127/4 52/13/4
f 8/16/5 20/131/5 18/17/5
f 20/132/1 8/133/1 32/19/1
f 8/133/1 35/134/1 32/19/1
f 41/135/1 9/136/1 44/20/1
f 9/136/1 21/21/1 44/20/1
f 20/132/1 32/19/1 21/21/1
f 11/22/6 12/137/6 13/23/6
f 19/138/3 14/40/3 17/25/3
f 17/25/3 16/139/3 20/26/3
f 21/27/3 19/138/3 17/25/3
f 60/79/1 10/78/1 14/30/1
f 15/140/1 56/141/1 51/28/1
f 53/29/1 60/79/1 14/30/1
f 15/140/1 51/28/1 14/30/1
f 15/31/2 16/142/2 12/32/2
f 34/59/4 12/143/4 16/33/4
f 17/34/4 45/144/4 43/145/4
f 31/35/4 34/59/4 16/33/4
f 17/34/4 43/145/4 31/35/4
f 14/36/5 23/146/5 22/37/5
f 22/37/5 27/147/5 17/38/5
f 14/40/3 19/138/3 18/41/3
f 18/41/3 20/26/3 15/39/3
f 20/26/3 16/139/3 15/39/3
f 21/42/2 9/148/2 28/149/2
f 9/148/2 30/150/2 28/149/2
f 26/151/2 6/152/2 24/43/2
f 6/152/2 19/44/2 24/43/2
f 21/42/2 28/149/2 24/43/2
f 64/46/2 4/51/2 59/153/2
f 26/47/4 24/154/4 23/155/4
f 24/154/4 22/156/4 23/155/4
f 64/46/2 59/153/2 61/157/2
f 26/47/4 23/155/4 25/45/4
f 64/46/4 61/157/4 26/47/4
f 24/48/6 28/158/6 27/49/6
f 25/159/3 29/160/3 36/53/3
f 29/160/3 47/161/3 36/53/3
f 47/161/3 5/76/3 37/162/3
f 36/53/3 38/163/3 63/164/3
f 47/161/3 37/162/3 36/53/3
f 64/52/3 25/159/3 36/53/3
f 63/164/3 4/51/3 36/53/3
f 13/56/5 17/38/5 29/165/5
f 17/38/5 27/147/5 29/165/5
f 23/146/5 14/36/5 10/55/5
f 13/56/5 29/165/5 25/54/5
f 25/54/5 23/146/5 10/55/5
f 39/57/4 45/144/4 17/34/4
f 13/58/4 12/143/4 34/59/4
f 39/57/4 17/34/4 13/58/4
f 37/60/2 38/166/2 49/61/2
f 39/167/3 34/168/3 46/65/3
f 34/168/3 3/63/3 46/65/3
f 48/64/3 2/169/3 46/65/3
f 34/68/5 31/170/5 35/66/5
f 31/170/5 32/171/5 35/66/5
f 35/66/5 33/172/5 3/67/5
f 41/69/3 42/173/3 30/70/3
f 43/72/6 44/174/6 32/73/6
f 49/77/3 38/163/3 36/53/3
f 36/53/3 2/75/3 49/77/3
f 55/80/1 56/141/1 11/175/1
f 56/141/1 15/140/1 11/175/1
f 11/175/1 10/78/1 55/80/1
f 69/176/1 50/177/1 66/83/1
f 50/177/1 1/178/1 66/83/1
f 1/178/1 58/81/1 66/83/1
f 53/84/6 51/179/6 52/85/6
f 55/87/5 1/180/5 57/88/5
f 1/180/5 50/181/5 57/88/5
f 57/88/5 52/182/5 56/89/5
f 52/182/5 51/183/5 56/89/5
f 55/92/3 60/184/3 4/90/3
f 60/184/3 59/185/3 4/90/3
f 4/90/3 58/186/3 1/91/3
f 7/93/3 57/187/3 50/94/3
f 50/94/3 69/188/3 70/189/3
f 33/95/3 35/190/3 8/191/3
f 50/94/3 70/189/3 33/95/3
f 8/191/3 7/93/3 33/95/3
f 60/98/2 53/192/2 62/96/2
f 53/192/2 54/193/2 62/96/2
f 62/96/2 61/194/2 59/97/2
f 38/101/5 65/195/5 58/99/5
f 65/195/5 67/196/5 58/99/5
f 58/99/2 4/197/2 63/100/2
f 66/102/3 67/198/3 65/103/3
f 66/105/5 68/199/5 70/106/5
