# Blender v2.79 (sub 0) OBJ File: 'holder.blend'
# www.blender.org
mtllib holder.mtl
o Cube
v 8.172377 -6.310777 4.225356
v 9.577842 -6.314847 4.223137
v 9.595469 -6.329191 15.412956
v 8.190003 -6.325120 15.415174
v 8.168198 -7.752900 4.223512
v 9.573664 -7.756970 4.221299
v 9.591290 -7.771313 15.411117
v 8.185824 -7.767243 15.413334
vt 0.000000 0.666667
vt 0.000000 1.000000
vt 0.333333 1.000000
vt 0.333333 0.666667
vt 0.666667 0.333333
vt 0.333333 0.333333
vt 0.333333 0.666667
vt 0.666667 0.666667
vt 0.666667 0.333333
vt 0.666667 0.000000
vt 0.333333 0.000000
vt 0.333333 0.333333
vt 0.000000 0.333333
vt 0.333333 0.333333
vt 0.333333 0.000000
vt 0.000000 0.000000
vt 1.000000 0.333333
vt 1.000000 0.000000
vt 0.666667 0.000000
vt 0.666667 0.333333
vt 0.000000 0.333333
vt 0.000000 0.666667
vt 0.333333 0.666667
vt 0.333333 0.333333
vn 0.0029 1.0000 0.0013
vn -0.0029 -1.0000 -0.0013
vn -0.0016 0.0013 -1.0000
vn 1.0000 -0.0029 -0.0016
vn 0.0016 -0.0013 1.0000
vn -1.0000 0.0029 0.0016
usemtl Material
s off
f 1/1/1 4/2/1 3/3/1 2/4/1
f 5/5/2 6/6/2 7/7/2 8/8/2
f 1/9/3 2/10/3 6/11/3 5/12/3
f 2/13/4 3/14/4 7/15/4 6/16/4
f 3/17/5 4/18/5 8/19/5 7/20/5
f 5/21/6 8/22/6 4/23/6 1/24/6
