# Blender v2.79 (sub 0) OBJ File: 'light.blend'
# www.blender.org
mtllib light6.mtl
o Cylinder.005_Cylinder.007
v -9.514800 -3.570296 12.142204
v -9.489293 -3.470740 9.491984
v -9.338436 -3.552338 12.143954
v -9.331416 -3.454664 9.493551
v -9.168964 -3.500317 12.145699
v -9.179710 -3.408096 9.495113
v -9.012898 -3.416232 12.147370
v -9.040004 -3.332825 9.496609
v -8.876236 -3.303314 12.148905
v -8.917666 -3.231744 9.497982
v -8.764228 -3.165903 12.150242
v -8.817400 -3.108737 9.499180
v -8.681179 -3.009279 12.151333
v -8.743056 -2.968532 9.500156
v -8.630280 -2.839462 12.152133
v -8.697494 -2.816516 9.500874
v -8.613489 -2.662977 12.152614
v -8.682463 -2.658531 9.501303
v -8.631450 -2.486607 12.152756
v -8.698541 -2.500649 9.501431
v -8.683472 -2.317129 12.152553
v -8.745110 -2.348937 9.501248
v -8.767557 -2.161056 12.152014
v -8.820380 -2.209224 9.500767
v -8.880473 -2.024387 12.151159
v -8.921460 -2.086881 9.500001
v -9.017881 -1.912372 12.150022
v -9.044464 -1.986609 9.498982
v -9.174501 -1.829318 12.148645
v -9.184667 -1.912261 9.497750
v -9.344314 -1.778415 12.147082
v -9.336679 -1.866694 9.496351
v -9.520793 -1.761620 12.145393
v -9.494658 -1.851659 9.494839
v -9.697157 -1.779578 12.143642
v -9.652534 -1.867735 9.493272
v -9.866629 -1.831599 12.141898
v -9.804241 -1.914303 9.491711
v -10.022695 -1.915684 12.140226
v -9.943947 -1.989574 9.490214
v -10.159357 -2.028602 12.138693
v -10.066284 -2.090655 9.488841
v -10.271365 -2.166014 12.137354
v -10.166551 -2.213662 9.487643
v -10.354414 -2.322637 12.136264
v -10.240894 -2.353868 9.486668
v -10.405313 -2.492455 12.135464
v -10.286456 -2.505884 9.485950
v -10.422104 -2.668940 12.134983
v -10.301488 -2.663868 9.485520
v -10.404142 -2.845310 12.134841
v -10.285410 -2.821751 9.485394
v -10.352120 -3.014788 12.135044
v -10.238840 -2.973463 9.485575
v -10.268035 -3.170861 12.135583
v -10.163569 -3.113175 9.486057
v -10.155119 -3.307530 12.136437
v -10.062490 -3.235518 9.486822
v -10.017710 -3.419544 12.137575
v -9.939486 -3.335790 9.487841
v -9.861090 -3.502599 12.138951
v -9.799283 -3.410139 9.489073
v -9.691278 -3.553501 12.140514
v -9.647271 -3.455705 9.490473
v -9.489976 -4.250196 9.825567
v -9.180206 -4.218654 9.828641
v -8.882545 -4.127283 9.831705
v -8.608427 -3.979594 9.834641
v -8.368390 -3.781264 9.837336
v -8.171658 -3.539912 9.839685
v -8.025788 -3.264816 9.841600
v -7.936390 -2.966546 9.843007
v -7.906898 -2.656565 9.843851
v -7.938444 -2.346785 9.844100
v -8.029817 -2.049111 9.843744
v -8.177505 -1.774982 9.842797
v -8.375834 -1.534933 9.841296
v -8.617180 -1.338189 9.839298
v -8.892269 -1.192311 9.836880
v -9.190531 -1.102904 9.834135
v -9.500502 -1.073405 9.831168
v -9.810271 -1.104947 9.828094
v -10.107933 -1.196318 9.825029
v -10.382051 -1.344007 9.822094
v -10.622087 -1.542338 9.819399
v -10.818821 -1.783689 9.817049
v -10.964689 -2.058786 9.815134
v -11.054088 -2.357056 9.813727
v -11.083580 -2.667037 9.812883
v -11.052033 -2.976818 9.812634
v -10.960660 -3.274492 9.812990
v -10.812971 -3.548621 9.813937
v -10.614642 -3.788669 9.815438
v -10.373296 -3.985413 9.817436
v -10.098206 -4.131291 9.819855
v -9.799944 -4.220697 9.822599
v -9.229100 -3.998075 10.250032
v -8.973756 -3.919695 10.252661
v -8.738609 -3.793003 10.255178
v -8.532698 -3.622868 10.257490
v -8.363934 -3.415830 10.259506
v -8.238804 -3.179843 10.261149
v -8.162115 -2.923978 10.262356
v -8.136815 -2.658066 10.263080
v -8.163877 -2.392327 10.263293
v -8.242259 -2.136973 10.262988
v -8.368951 -1.901816 10.262176
v -8.539083 -1.695895 10.260888
v -8.746118 -1.527121 10.259174
v -8.982098 -1.401982 10.257099
v -9.237956 -1.325287 10.254745
v -9.503860 -1.299981 10.252199
v -9.769589 -1.327039 10.249562
v -10.024933 -1.405420 10.246934
v -10.260079 -1.532112 10.244415
v -10.465991 -1.702247 10.242104
v -10.634755 -1.909286 10.240088
v -10.759886 -2.145272 10.238445
v -10.836575 -2.401138 10.237239
v -10.861874 -2.667050 10.236515
v -10.834812 -2.932789 10.236301
v -10.756429 -3.188143 10.236607
v -10.629737 -3.423300 10.237418
v -10.459604 -3.629221 10.238707
v -10.252569 -3.797994 10.240420
v -10.016589 -3.923133 10.242495
v -9.760731 -3.999828 10.244849
v -9.494829 -4.025133 10.247395
v -9.489370 -3.758976 9.597422
v -9.275319 -3.737180 9.599545
v -9.069633 -3.674042 9.601664
v -8.880219 -3.571989 9.603692
v -8.714352 -3.434942 9.605554
v -8.578409 -3.268167 9.607178
v -8.477613 -3.078075 9.608500
v -8.415838 -2.871970 9.609472
v -8.395459 -2.657772 9.610056
v -8.417257 -2.443713 9.610228
v -8.480397 -2.238019 9.609982
v -8.582450 -2.048595 9.609327
v -8.719495 -1.882721 9.608291
v -8.886266 -1.746770 9.606910
v -9.076354 -1.645968 9.605239
v -9.282454 -1.584188 9.603342
v -9.496644 -1.563804 9.601292
v -9.710695 -1.585600 9.599167
v -9.916381 -1.648737 9.597050
v -10.105797 -1.750791 9.595021
v -10.271664 -1.887838 9.593160
v -10.407606 -2.054612 9.591536
v -10.508402 -2.244705 9.590212
v -10.570176 -2.450810 9.589240
v -10.590555 -2.665008 9.588657
v -10.568757 -2.879067 9.588486
v -10.505617 -3.084761 9.588731
v -10.403564 -3.274185 9.589385
v -10.266519 -3.440059 9.590423
v -10.099748 -3.576010 9.591804
v -9.909659 -3.676812 9.593474
v -9.703560 -3.738592 9.595371
v -9.209210 -4.071981 9.761786
v -8.939569 -3.989211 9.764561
v -8.691256 -3.855425 9.767220
v -8.473814 -3.675764 9.769661
v -8.295600 -3.457132 9.771791
v -8.163463 -3.207932 9.773525
v -8.082479 -2.937739 9.774799
v -8.055763 -2.656938 9.775563
v -8.084340 -2.376319 9.775789
v -8.167111 -2.106666 9.775467
v -8.300898 -1.858342 9.774609
v -8.480556 -1.640890 9.773250
v -8.699183 -1.462666 9.771440
v -8.948379 -1.330520 9.769249
v -9.218563 -1.249529 9.766762
v -9.499355 -1.222807 9.764074
v -9.779964 -1.251380 9.761290
v -10.049607 -1.334150 9.758513
v -10.297920 -1.467936 9.755855
v -10.515362 -1.647598 9.753413
v -10.693575 -1.866230 9.751285
v -10.825712 -2.115430 9.749550
v -10.906695 -2.385623 9.748276
v -10.933412 -2.666425 9.747511
v -10.904835 -2.947044 9.747286
v -10.822062 -3.216697 9.747608
v -10.688276 -3.465021 9.748466
v -10.508617 -3.682473 9.749825
v -10.289989 -3.860696 9.751636
v -10.040795 -3.992842 9.753826
v -9.770610 -4.073832 9.756312
v -9.489820 -4.100554 9.759001
vt 0.279929 0.336410
vt 0.248760 0.278720
vt 0.261851 0.270066
vt 0.303797 0.320632
vt 0.272984 0.259052
vt 0.324096 0.300550
vt 0.281731 0.246100
vt 0.340045 0.276936
vt 0.287756 0.231710
vt 0.351030 0.250698
vt 0.290828 0.216433
vt 0.356631 0.222844
vt 0.290828 0.200856
vt 0.356631 0.194445
vt 0.287756 0.185579
vt 0.351030 0.166591
vt 0.281731 0.171189
vt 0.340045 0.140353
vt 0.272984 0.158237
vt 0.324096 0.116739
vt 0.261851 0.147223
vt 0.303797 0.096657
vt 0.248760 0.138569
vt 0.279929 0.080879
vt 0.234213 0.132609
vt 0.253407 0.070011
vt 0.218771 0.129570
vt 0.225252 0.064471
vt 0.203027 0.129570
vt 0.196546 0.064471
vt 0.187584 0.132609
vt 0.168391 0.070011
vt 0.173038 0.138569
vt 0.141869 0.080879
vt 0.159947 0.147223
vt 0.118000 0.096657
vt 0.148814 0.158237
vt 0.097702 0.116739
vt 0.140067 0.171189
vt 0.081753 0.140353
vt 0.134041 0.185579
vt 0.070768 0.166591
vt 0.130970 0.200856
vt 0.065167 0.194445
vt 0.130970 0.216433
vt 0.065167 0.222844
vt 0.134041 0.231710
vt 0.070768 0.250699
vt 0.140067 0.246100
vt 0.081753 0.276937
vt 0.148814 0.259052
vt 0.097702 0.300550
vt 0.159947 0.270066
vt 0.118000 0.320632
vt 0.173038 0.278720
vt 0.141869 0.336410
vt 0.187585 0.284680
vt 0.168391 0.347278
vt 0.203027 0.287719
vt 0.196546 0.352818
vt 0.218771 0.287719
vt 0.225252 0.352818
vt 0.234213 0.284680
vt 0.253408 0.347278
vt 0.725433 0.846890
vt 0.720054 0.820137
vt 0.720054 0.792859
vt 0.725433 0.766106
vt 0.735984 0.740905
vt 0.751303 0.718224
vt 0.770799 0.698936
vt 0.793725 0.683781
vt 0.819198 0.673343
vt 0.846241 0.668021
vt 0.873813 0.668021
vt 0.900856 0.673343
vt 0.926329 0.683781
vt 0.949255 0.698936
vt 0.968751 0.718224
vt 0.984069 0.740905
vt 0.994621 0.766106
vt 1.000000 0.792859
vt 1.000000 0.820137
vt 0.994621 0.846890
vt 0.984069 0.872091
vt 0.968751 0.894772
vt 0.949255 0.914060
vt 0.926329 0.929215
vt 0.900856 0.939653
vt 0.873813 0.944975
vt 0.846241 0.944975
vt 0.819198 0.939653
vt 0.793725 0.929214
vt 0.770799 0.914060
vt 0.751303 0.894772
vt 0.735984 0.872091
vt 0.269677 0.482536
vt 0.268856 0.422132
vt 0.298283 0.425706
vt 0.299103 0.486110
vt 0.235095 0.479880
vt 0.234275 0.419477
vt 0.196688 0.478245
vt 0.195868 0.417841
vt 0.155932 0.477693
vt 0.155112 0.417289
vt 0.114392 0.478245
vt 0.113572 0.417841
vt 0.073666 0.479880
vt 0.072845 0.419477
vt 0.035317 0.482536
vt 0.034497 0.422132
vt 0.000820 0.486110
vt 0.000000 0.425706
vt 0.720054 0.066764
vt 0.720054 0.006355
vt 0.749430 0.010319
vt 0.749430 0.070729
vt 0.685512 0.063649
vt 0.685512 0.003240
vt 0.647131 0.061503
vt 0.647131 0.001094
vt 0.606385 0.060409
vt 0.606385 0.000000
vt 0.564842 0.060409
vt 0.564842 0.000000
vt 0.524097 0.061503
vt 0.524097 0.001094
vt 0.485716 0.063649
vt 0.485716 0.003240
vt 0.451173 0.066764
vt 0.451173 0.006355
vt 0.451173 0.933236
vt 0.451173 0.993645
vt 0.421798 0.989681
vt 0.421798 0.929271
vt 0.485716 0.936351
vt 0.485716 0.996760
vt 0.524097 0.938497
vt 0.524097 0.998906
vt 0.564842 0.939591
vt 0.564842 1.000000
vt 0.606385 0.939591
vt 0.606385 1.000000
vt 0.647131 0.938497
vt 0.647131 0.998906
vt 0.685512 0.936351
vt 0.685512 0.996760
vt 0.720054 0.933236
vt 0.720054 0.993645
vt 0.691474 0.399857
vt 0.690654 0.339453
vt 0.720081 0.343027
vt 0.720901 0.403431
vt 0.656893 0.397202
vt 0.656073 0.336798
vt 0.618486 0.395566
vt 0.617666 0.335162
vt 0.577730 0.395014
vt 0.576909 0.334610
vt 0.536190 0.395566
vt 0.535370 0.335162
vt 0.495463 0.397202
vt 0.494643 0.336798
vt 0.457115 0.399857
vt 0.456294 0.339453
vt 0.422618 0.403431
vt 0.421798 0.343027
vt 0.471428 0.668021
vt 0.494324 0.665649
vt 0.519776 0.663887
vt 0.546806 0.662801
vt 0.574376 0.662435
vt 0.601426 0.662801
vt 0.626916 0.663887
vt 0.649868 0.665649
vt 0.669398 0.668021
vt 0.674841 0.668021
vt 0.651916 0.670089
vt 0.626442 0.671513
vt 0.599400 0.672239
vt 0.571828 0.672239
vt 0.544785 0.671513
vt 0.519312 0.670089
vt 0.496386 0.668021
vt 0.476890 0.334610
vt 0.421798 0.070729
vt 0.496386 0.331979
vt 0.519312 0.329911
vt 0.544785 0.328487
vt 0.571828 0.327761
vt 0.599400 0.327761
vt 0.626442 0.328487
vt 0.651916 0.329911
vt 0.674841 0.331979
vt 0.694338 0.334610
vt 0.049631 0.750700
vt 0.072526 0.748328
vt 0.097978 0.746565
vt 0.125008 0.745480
vt 0.152578 0.745113
vt 0.179628 0.745480
vt 0.205118 0.746565
vt 0.228070 0.748328
vt 0.247600 0.750700
vt 0.266625 0.390385
vt 0.301393 0.376138
vt 0.229716 0.397648
vt 0.192083 0.397648
vt 0.155173 0.390385
vt 0.120405 0.376138
vt 0.089114 0.355454
vt 0.062504 0.329128
vt 0.041596 0.298172
vt 0.027195 0.263775
vt 0.019853 0.227260
vt 0.019853 0.190029
vt 0.027195 0.153514
vt 0.041596 0.119118
vt 0.062504 0.088162
vt 0.089114 0.061836
vt 0.120405 0.041151
vt 0.155173 0.026904
vt 0.192082 0.019641
vt 0.229715 0.019641
vt 0.266625 0.026904
vt 0.301393 0.041151
vt 0.332684 0.061836
vt 0.359294 0.088162
vt 0.380202 0.119118
vt 0.394603 0.153514
vt 0.401945 0.190029
vt 0.401945 0.227260
vt 0.394603 0.263775
vt 0.380202 0.298171
vt 0.359294 0.329127
vt 0.332684 0.355453
vt 0.310797 0.393543
vt 0.345339 0.370709
vt 0.374715 0.341648
vt 0.397795 0.307475
vt 0.413693 0.269504
vt 0.421798 0.229194
vt 0.421798 0.188095
vt 0.413693 0.147785
vt 0.397795 0.109814
vt 0.374715 0.075641
vt 0.345339 0.046580
vt 0.310797 0.023746
vt 0.272416 0.008018
vt 0.231671 0.000000
vt 0.190127 0.000000
vt 0.149382 0.008018
vt 0.111001 0.023746
vt 0.076459 0.046580
vt 0.047083 0.075641
vt 0.024003 0.109814
vt 0.008105 0.147785
vt 0.000000 0.188095
vt 0.000000 0.229194
vt 0.008105 0.269504
vt 0.024003 0.307475
vt 0.047083 0.341648
vt 0.076459 0.370709
vt 0.111001 0.393543
vt 0.149382 0.409271
vt 0.190127 0.417289
vt 0.231671 0.417289
vt 0.272416 0.409271
vn 0.0443 -0.3432 -0.9382
vn 0.1109 -0.3297 -0.9375
vn 0.1736 -0.3035 -0.9369
vn 0.2299 -0.2656 -0.9363
vn 0.2778 -0.2174 -0.9357
vn 0.3154 -0.1607 -0.9352
vn 0.3412 -0.0979 -0.9349
vn 0.3542 -0.0312 -0.9346
vn 0.3540 0.0368 -0.9345
vn 0.3405 0.1034 -0.9345
vn 0.3143 0.1661 -0.9347
vn 0.2764 0.2225 -0.9349
vn 0.2282 0.2704 -0.9353
vn 0.1715 0.3080 -0.9358
vn 0.1087 0.3338 -0.9364
vn 0.0420 0.3468 -0.9370
vn -0.0260 0.3466 -0.9377
vn -0.0926 0.3331 -0.9383
vn -0.1553 0.3069 -0.9390
vn -0.2117 0.2689 -0.9396
vn -0.2596 0.2207 -0.9402
vn -0.2971 0.1641 -0.9406
vn -0.3229 0.1012 -0.9410
vn -0.3360 0.0345 -0.9412
vn -0.3357 -0.0334 -0.9414
vn -0.3223 -0.1000 -0.9414
vn -0.2960 -0.1627 -0.9412
vn -0.2581 -0.2191 -0.9409
vn -0.2099 -0.2670 -0.9406
vn -0.1533 -0.3046 -0.9401
vn 0.0097 0.0018 -1.0000
vn -0.0904 -0.3304 -0.9395
vn -0.0237 -0.3434 -0.9389
vn -0.0097 -0.0018 1.0000
vn -0.0882 -0.8793 0.4681
vn -0.2579 -0.8461 0.4665
vn -0.4179 -0.7804 0.4651
vn -0.5621 -0.6848 0.4638
vn -0.6848 -0.5629 0.4629
vn -0.7814 -0.4194 0.4622
vn -0.8481 -0.2598 0.4618
vn -0.8824 -0.0902 0.4618
vn -0.8830 0.0827 0.4621
vn -0.8498 0.2525 0.4627
vn -0.7841 0.4125 0.4636
vn -0.6885 0.5567 0.4648
vn -0.5666 0.6794 0.4662
vn -0.4231 0.7760 0.4678
vn -0.2635 0.8427 0.4695
vn -0.0940 0.8770 0.4712
vn 0.0790 0.8776 0.4729
vn 0.2487 0.8444 0.4745
vn 0.4088 0.7787 0.4759
vn 0.5529 0.6831 0.4772
vn 0.6756 0.5612 0.4781
vn 0.7722 0.4177 0.4788
vn 0.8389 0.2581 0.4792
vn 0.8732 0.0885 0.4792
vn 0.8738 -0.0844 0.4789
vn 0.8406 -0.2542 0.4783
vn 0.7749 -0.4142 0.4774
vn 0.6793 -0.5584 0.4762
vn 0.5574 -0.6811 0.4748
vn 0.4139 -0.7777 0.4732
vn 0.2543 -0.8444 0.4715
vn 0.0848 -0.8787 0.4698
vn 0.0962 -0.9676 0.2333
vn 0.2830 -0.9298 0.2352
vn 0.4588 -0.8563 0.2370
vn 0.6169 -0.7499 0.2388
vn 0.7513 -0.6147 0.2403
vn 0.8566 -0.4559 0.2416
vn 0.9290 -0.2796 0.2426
vn 0.9655 -0.0925 0.2433
vn 0.9649 0.0981 0.2437
vn 0.9271 0.2849 0.2436
vn 0.8536 0.4607 0.2432
vn 0.7472 0.6188 0.2425
vn 0.6120 0.7531 0.2414
vn 0.4532 0.8585 0.2400
vn 0.2768 0.9309 0.2385
vn 0.0898 0.9674 0.2367
vn -0.1008 0.9668 0.2348
vn -0.2876 0.9290 0.2330
vn -0.4634 0.8555 0.2311
vn -0.6215 0.7491 0.2294
vn -0.7558 0.6139 0.2278
vn -0.8612 0.4551 0.2265
vn -0.9335 0.2787 0.2255
vn -0.9701 0.0917 0.2248
vn -0.9694 -0.0989 0.2245
vn -0.9316 -0.2857 0.2245
vn -0.8581 -0.4615 0.2249
vn -0.7517 -0.6197 0.2257
vn -0.6165 -0.7540 0.2267
vn -0.4577 -0.8593 0.2281
vn -0.2814 -0.9317 0.2297
vn -0.0944 -0.9683 0.2314
vn -0.0320 -0.4274 -0.9035
vn -0.1149 -0.4111 -0.9043
vn -0.1931 -0.3791 -0.9050
vn -0.2635 -0.3324 -0.9056
vn -0.3234 -0.2728 -0.9061
vn -0.3705 -0.2028 -0.9064
vn -0.4031 -0.1248 -0.9066
vn -0.4199 -0.0420 -0.9066
vn -0.4202 0.0424 -0.9065
vn -0.4040 0.1253 -0.9061
vn -0.3719 0.2035 -0.9057
vn -0.3252 0.2739 -0.9051
vn -0.2657 0.3338 -0.9044
vn -0.1956 0.3810 -0.9037
vn -0.1177 0.4136 -0.9028
vn -0.0349 0.4303 -0.9020
vn 0.0496 0.4306 -0.9012
vn 0.1325 0.4144 -0.9004
vn 0.2106 0.3823 -0.8997
vn 0.2810 0.3356 -0.8991
vn 0.3410 0.2761 -0.8986
vn 0.3881 0.2060 -0.8983
vn 0.4207 0.1281 -0.8981
vn 0.4375 0.0453 -0.8981
vn 0.4377 -0.0392 -0.8982
vn 0.4215 -0.1221 -0.8986
vn 0.3895 -0.2003 -0.8990
vn 0.3428 -0.2706 -0.8996
vn 0.2832 -0.3306 -0.9003
vn 0.2132 -0.3777 -0.9010
vn 0.1352 -0.4103 -0.9019
vn 0.0524 -0.4271 -0.9027
vn 0.0504 -0.4060 -0.9125
vn 0.1291 -0.3900 -0.9117
vn 0.2032 -0.3591 -0.9109
vn 0.2698 -0.3142 -0.9102
vn 0.3264 -0.2572 -0.9095
vn 0.3708 -0.1903 -0.9090
vn 0.4013 -0.1160 -0.9086
vn 0.4167 -0.0372 -0.9083
vn 0.4165 0.0431 -0.9081
vn 0.4005 0.1219 -0.9081
vn 0.3696 0.1960 -0.9083
vn 0.3247 0.2626 -0.9086
vn 0.2677 0.3192 -0.9091
vn 0.2008 0.3636 -0.9097
vn 0.1265 0.3941 -0.9103
vn 0.0477 0.4095 -0.9111
vn -0.0326 0.4092 -0.9118
vn -0.1113 0.3933 -0.9126
vn -0.1854 0.3623 -0.9134
vn -0.2521 0.3175 -0.9141
vn -0.3087 0.2605 -0.9148
vn -0.3531 0.1936 -0.9154
vn -0.3836 0.1193 -0.9158
vn -0.3990 0.0405 -0.9161
vn -0.3987 -0.0399 -0.9162
vn -0.3828 -0.1186 -0.9162
vn -0.3518 -0.1927 -0.9160
vn -0.3069 -0.2593 -0.9157
vn -0.2500 -0.3159 -0.9153
vn -0.1830 -0.3603 -0.9147
vn -0.1087 -0.3908 -0.9140
vn -0.0299 -0.4062 -0.9133
usemtl None
s off
f 129/1/1 2/2/1 4/3/1 130/4/1
f 130/4/2 4/3/2 6/5/2 131/6/2
f 131/6/3 6/5/3 8/7/3 132/8/3
f 132/8/4 8/7/4 10/9/4 133/10/4
f 133/10/5 10/9/5 12/11/5 134/12/5
f 134/12/6 12/11/6 14/13/6 135/14/6
f 135/14/7 14/13/7 16/15/7 136/16/7
f 136/16/8 16/15/8 18/17/8 137/18/8
f 137/18/9 18/17/9 20/19/9 138/20/9
f 138/20/10 20/19/10 22/21/10 139/22/10
f 139/22/11 22/21/11 24/23/11 140/24/11
f 140/24/12 24/23/12 26/25/12 141/26/12
f 141/26/13 26/25/13 28/27/13 142/28/13
f 142/28/14 28/27/14 30/29/14 143/30/14
f 143/30/15 30/29/15 32/31/15 144/32/15
f 144/32/16 32/31/16 34/33/16 145/34/16
f 145/34/17 34/33/17 36/35/17 146/36/17
f 146/36/18 36/35/18 38/37/18 147/38/18
f 147/38/19 38/37/19 40/39/19 148/40/19
f 148/40/20 40/39/20 42/41/20 149/42/20
f 149/42/21 42/41/21 44/43/21 150/44/21
f 150/44/22 44/43/22 46/45/22 151/46/22
f 151/46/23 46/45/23 48/47/23 152/48/23
f 152/48/24 48/47/24 50/49/24 153/50/24
f 153/50/25 50/49/25 52/51/25 154/52/25
f 154/52/26 52/51/26 54/53/26 155/54/26
f 155/54/27 54/53/27 56/55/27 156/56/27
f 156/56/28 56/55/28 58/57/28 157/58/28
f 157/58/29 58/57/29 60/59/29 158/60/29
f 158/60/30 60/59/30 62/61/30 159/62/30
f 4/3/31 2/2/31 64/63/31 62/61/31 60/59/31 58/57/31 56/55/31 54/53/31 52/51/31 50/49/31 48/47/31 46/45/31 44/43/31 42/41/31 40/39/31 38/37/31 36/35/31 34/33/31 32/31/31 30/29/31 28/27/31 26/25/31 24/23/31 22/21/31 20/19/31 18/17/31 16/15/31 14/13/31 12/11/31 10/9/31 8/7/31 6/5/31
f 159/62/32 62/61/32 64/63/32 160/64/32
f 160/64/33 64/63/33 2/2/33 129/1/33
f 1/65/34 3/66/34 5/67/34 7/68/34 9/69/34 11/70/34 13/71/34 15/72/34 17/73/34 19/74/34 21/75/34 23/76/34 25/77/34 27/78/34 29/79/34 31/80/34 33/81/34 35/82/34 37/83/34 39/84/34 41/85/34 43/86/34 45/87/34 47/88/34 49/89/34 51/90/34 53/91/34 55/92/34 57/93/34 59/94/34 61/95/34 63/96/34
f 127/97/35 96/98/35 65/99/35 128/100/35
f 126/101/36 95/102/36 96/98/36 127/97/36
f 125/103/37 94/104/37 95/102/37 126/101/37
f 124/105/38 93/106/38 94/104/38 125/103/38
f 123/107/39 92/108/39 93/106/39 124/105/39
f 122/109/40 91/110/40 92/108/40 123/107/40
f 121/111/41 90/112/41 91/110/41 122/109/41
f 120/113/42 89/114/42 90/112/42 121/111/42
f 119/115/43 88/116/43 89/117/43 120/118/43
f 118/119/44 87/120/44 88/116/44 119/115/44
f 117/121/45 86/122/45 87/120/45 118/119/45
f 116/123/46 85/124/46 86/122/46 117/121/46
f 115/125/47 84/126/47 85/124/47 116/123/47
f 114/127/48 83/128/48 84/126/48 115/125/48
f 113/129/49 82/130/49 83/128/49 114/127/49
f 112/131/50 81/132/50 82/130/50 113/129/50
f 111/133/51 80/134/51 81/135/51 112/136/51
f 110/137/52 79/138/52 80/134/52 111/133/52
f 109/139/53 78/140/53 79/138/53 110/137/53
f 108/141/54 77/142/54 78/140/54 109/139/54
f 107/143/55 76/144/55 77/142/55 108/141/55
f 106/145/56 75/146/56 76/144/56 107/143/56
f 105/147/57 74/148/57 75/146/57 106/145/57
f 104/149/58 73/150/58 74/148/58 105/147/58
f 103/151/59 72/152/59 73/153/59 104/154/59
f 102/155/60 71/156/60 72/152/60 103/151/60
f 101/157/61 70/158/61 71/156/61 102/155/61
f 100/159/62 69/160/62 70/158/62 101/157/62
f 99/161/63 68/162/63 69/160/63 100/159/63
f 98/163/64 67/164/64 68/162/64 99/161/64
f 97/165/65 66/166/65 67/164/65 98/163/65
f 128/167/66 65/168/66 66/166/66 97/165/66
f 1/169/67 128/167/67 97/165/67 3/170/67
f 3/170/68 97/165/68 98/163/68 5/171/68
f 5/171/69 98/163/69 99/161/69 7/172/69
f 7/172/70 99/161/70 100/159/70 9/173/70
f 9/173/71 100/159/71 101/157/71 11/174/71
f 11/174/72 101/157/72 102/155/72 13/175/72
f 13/175/73 102/155/73 103/151/73 15/176/73
f 15/176/74 103/151/74 104/154/74 17/177/74
f 17/178/75 104/149/75 105/147/75 19/179/75
f 19/179/76 105/147/76 106/145/76 21/180/76
f 21/180/77 106/145/77 107/143/77 23/181/77
f 23/181/78 107/143/78 108/141/78 25/182/78
f 25/182/79 108/141/79 109/139/79 27/183/79
f 27/183/80 109/139/80 110/137/80 29/184/80
f 29/184/81 110/137/81 111/133/81 31/185/81
f 31/186/82 111/187/82 112/131/82 33/188/82
f 33/188/83 112/131/83 113/129/83 35/189/83
f 35/189/84 113/129/84 114/127/84 37/190/84
f 37/190/85 114/127/85 115/125/85 39/191/85
f 39/191/86 115/125/86 116/123/86 41/192/86
f 41/192/87 116/123/87 117/121/87 43/193/87
f 43/193/88 117/121/88 118/119/88 45/194/88
f 45/194/89 118/119/89 119/115/89 47/195/89
f 47/195/90 119/115/90 120/118/90 49/196/90
f 49/197/91 120/113/91 121/111/91 51/198/91
f 51/198/92 121/111/92 122/109/92 53/199/92
f 53/199/93 122/109/93 123/107/93 55/200/93
f 55/200/94 123/107/94 124/105/94 57/201/94
f 57/201/95 124/105/95 125/103/95 59/202/95
f 59/202/96 125/103/96 126/101/96 61/203/96
f 61/203/97 126/101/97 127/97/97 63/204/97
f 63/204/98 127/97/98 128/100/98 1/205/98
f 191/206/99 160/64/99 129/1/99 192/207/99
f 190/208/100 159/62/100 160/64/100 191/206/100
f 189/209/101 158/60/101 159/62/101 190/208/101
f 188/210/102 157/58/102 158/60/102 189/209/102
f 187/211/103 156/56/103 157/58/103 188/210/103
f 186/212/104 155/54/104 156/56/104 187/211/104
f 185/213/105 154/52/105 155/54/105 186/212/105
f 184/214/106 153/50/106 154/52/106 185/213/106
f 183/215/107 152/48/107 153/50/107 184/214/107
f 182/216/108 151/46/108 152/48/108 183/215/108
f 181/217/109 150/44/109 151/46/109 182/216/109
f 180/218/110 149/42/110 150/44/110 181/217/110
f 179/219/111 148/40/111 149/42/111 180/218/111
f 178/220/112 147/38/112 148/40/112 179/219/112
f 177/221/113 146/36/113 147/38/113 178/220/113
f 176/222/114 145/34/114 146/36/114 177/221/114
f 175/223/115 144/32/115 145/34/115 176/222/115
f 174/224/116 143/30/116 144/32/116 175/223/116
f 173/225/117 142/28/117 143/30/117 174/224/117
f 172/226/118 141/26/118 142/28/118 173/225/118
f 171/227/119 140/24/119 141/26/119 172/226/119
f 170/228/120 139/22/120 140/24/120 171/227/120
f 169/229/121 138/20/121 139/22/121 170/228/121
f 168/230/122 137/18/122 138/20/122 169/229/122
f 167/231/123 136/16/123 137/18/123 168/230/123
f 166/232/124 135/14/124 136/16/124 167/231/124
f 165/233/125 134/12/125 135/14/125 166/232/125
f 164/234/126 133/10/126 134/12/126 165/233/126
f 163/235/127 132/8/127 133/10/127 164/234/127
f 162/236/128 131/6/128 132/8/128 163/235/128
f 161/237/129 130/4/129 131/6/129 162/236/129
f 192/207/130 129/1/130 130/4/130 161/237/130
f 65/238/131 192/207/131 161/237/131 66/239/131
f 66/239/132 161/237/132 162/236/132 67/240/132
f 67/240/133 162/236/133 163/235/133 68/241/133
f 68/241/134 163/235/134 164/234/134 69/242/134
f 69/242/135 164/234/135 165/233/135 70/243/135
f 70/243/136 165/233/136 166/232/136 71/244/136
f 71/244/137 166/232/137 167/231/137 72/245/137
f 72/245/138 167/231/138 168/230/138 73/246/138
f 73/246/139 168/230/139 169/229/139 74/247/139
f 74/247/140 169/229/140 170/228/140 75/248/140
f 75/248/141 170/228/141 171/227/141 76/249/141
f 76/249/142 171/227/142 172/226/142 77/250/142
f 77/250/143 172/226/143 173/225/143 78/251/143
f 78/251/144 173/225/144 174/224/144 79/252/144
f 79/252/145 174/224/145 175/223/145 80/253/145
f 80/253/146 175/223/146 176/222/146 81/254/146
f 81/254/147 176/222/147 177/221/147 82/255/147
f 82/255/148 177/221/148 178/220/148 83/256/148
f 83/256/149 178/220/149 179/219/149 84/257/149
f 84/257/150 179/219/150 180/218/150 85/258/150
f 85/258/151 180/218/151 181/217/151 86/259/151
f 86/259/152 181/217/152 182/216/152 87/260/152
f 87/260/153 182/216/153 183/215/153 88/261/153
f 88/261/154 183/215/154 184/214/154 89/262/154
f 89/262/155 184/214/155 185/213/155 90/263/155
f 90/263/156 185/213/156 186/212/156 91/264/156
f 91/264/157 186/212/157 187/211/157 92/265/157
f 92/265/158 187/211/158 188/210/158 93/266/158
f 93/266/159 188/210/159 189/209/159 94/267/159
f 94/267/160 189/209/160 190/208/160 95/268/160
f 95/268/161 190/208/161 191/206/161 96/269/161
f 96/269/162 191/206/162 192/207/162 65/238/162
