# Blender v2.79 (sub 0) OBJ File: ''
# www.blender.org
mtllib skybox.mtl
o Cube
v -425.587982 -339.423462 339.423492
v -425.587982 339.423492 339.423492
v 253.259033 339.423431 339.423492
v 253.258881 -339.423615 339.423492
v -425.588135 -339.423309 -339.423492
v -425.587769 339.423706 -339.423492
v 253.259125 339.423370 -339.423492
v 253.258972 -339.423492 -339.423492
vt 0.000000 0.000000
vt 0.000000 1.000000
vt 1.000000 1.000000
vt 1.000000 0.000000
vt 0.000000 0.000000
vt 0.000000 1.000000
vt 1.000000 1.000000
vt 1.000000 0.000000
vt 0.000000 1.000000
vt 1.000000 1.000000
vt 1.000000 0.000000
vt 0.000000 0.000000
vt 0.000000 1.000000
vt 1.000000 0.000000
vt 0.000000 0.000000
vt 1.000000 1.000000
vt 1.000000 0.000000
vt 0.000000 1.000000
vt 1.000000 1.000000
vt 1.000000 0.000000
vn -0.0000 0.0000 1.0000
vn 0.0000 0.0000 -1.0000
vn -1.0000 0.0000 -0.0000
vn 0.0000 1.0000 0.0000
vn 1.0000 -0.0000 0.0000
vn -0.0000 -1.0000 -0.0000
usemtl Material
s off
f 1/1/1 4/2/1 3/3/1 2/4/1
f 5/5/2 6/6/2 7/7/2 8/8/2
f 1/1/3 2/9/3 6/10/3 5/11/3
f 2/12/4 3/13/4 7/7/4 6/14/4
f 3/15/5 4/2/5 8/16/5 7/17/5
f 5/5/6 8/18/6 4/19/6 1/20/6
