# Blender v2.79 (sub 0) OBJ File: 'stick.blend'
# www.blender.org
mtllib test.mtl
o Cube
v -0.637850 0.637850 12.756989
v -0.637850 0.637850 -12.756989
v 0.637850 0.637850 -12.756988
v 0.637849 0.637850 12.756994
v -0.637850 -0.637850 12.756983
v -0.637849 -0.637850 -12.756997
v 0.637850 -0.637850 -12.756985
v 0.637849 -0.637850 12.756989
vt 0.333333 0.666667
vt 0.000000 0.666667
vt 0.000000 1.000000
vt 0.666667 0.666667
vt 0.666667 0.333333
vt 0.333333 0.333333
vt 0.333333 0.333333
vt 0.666667 0.333333
vt 0.666667 0.000000
vt 0.000000 0.000000
vt 0.000000 0.333333
vt 0.333333 0.333333
vt 1.000000 0.333333
vt 1.000000 0.000000
vt 0.666667 0.000000
vt 0.333333 0.333333
vt 0.000000 0.333333
vt 0.000000 0.666667
vt 0.333333 1.000000
vt 0.333333 0.666667
vt 0.333333 0.000000
vt 0.333333 0.000000
vt 0.666667 0.333333
vt 0.333333 0.666667
vn 0.0000 1.0000 0.0000
vn 0.0000 -1.0000 0.0000
vn -1.0000 0.0000 0.0000
vn 0.0000 0.0000 -1.0000
vn 1.0000 0.0000 0.0000
vn -0.0000 -0.0000 1.0000
usemtl Material
s off
f 2/1/1 1/2/1 4/3/1
f 8/4/2 5/5/2 6/6/2
f 5/7/3 1/8/3 2/9/3
f 6/10/4 2/11/4 3/12/4
f 3/13/5 4/14/5 8/15/5
f 1/16/6 5/17/6 8/18/6
f 2/1/1 4/3/1 3/19/1
f 8/4/2 6/6/2 7/20/2
f 5/7/3 2/9/3 6/21/3
f 6/10/4 3/12/4 7/22/4
f 3/13/5 8/15/5 7/23/5
f 1/16/6 8/18/6 4/24/6
