# Blender v2.79 (sub 0) OBJ File: ''
# www.blender.org
mtllib thing.mtl
o Cylinder
v -17.676413 12.505416 -16.420902
v 17.673796 12.505417 -16.420902
v -17.676413 12.812214 -16.554585
v 17.673796 12.812215 -16.554585
v -17.676413 12.935856 -16.771673
v 17.673796 12.935856 -16.771673
v -17.676413 13.057689 -17.063828
v 17.673796 13.057689 -17.063828
v -17.676413 13.157675 -17.419817
v 17.673796 13.157675 -17.419817
v -17.676413 13.231971 -17.825962
v 17.673796 13.231971 -17.825962
v -17.676413 13.277721 -18.266657
v 17.673796 13.277722 -18.266657
v -17.676413 13.293170 -19.032623
v 17.673796 13.293170 -19.032623
v -17.676413 13.277721 -19.490931
v 17.673796 13.277721 -19.490931
v -17.676413 13.231970 -19.931623
v 17.673796 13.231971 -19.931623
v -17.676413 13.157674 -20.337769
v 17.673796 13.157674 -20.337769
v -17.676413 13.057688 -20.693758
v 17.673796 13.057688 -20.693758
v -17.676413 12.935854 -20.985910
v 17.673796 12.935855 -20.985910
v -17.676413 12.812211 -21.202999
v 17.673796 12.812212 -21.202999
v -17.676413 12.505413 -21.336681
v 17.673796 12.505414 -21.336681
v 17.673796 11.353498 -21.360390
v -17.676413 11.353502 -21.360390
v 17.673796 11.353498 -16.397192
v -17.676413 11.353502 -16.397192
vn 0.6659 0.1597 0.7287
vn -0.6425 0.5121 0.5700
vn -0.6659 0.1597 0.7287
vn 0.6425 0.5122 0.5700
vn -0.6936 0.6466 0.3175
vn 0.6936 0.6466 0.3175
vn -0.6937 0.6803 0.2364
vn 0.6937 0.6803 0.2364
vn -0.6968 0.6988 0.1617
vn 0.6968 0.6988 0.1617
vn -0.6985 0.7084 0.1014
vn 0.6985 0.7084 0.1014
vn -0.6978 0.7149 0.0442
vn 0.6978 0.7149 0.0442
vn -0.7011 0.7130 -0.0048
vn 0.7011 0.7130 -0.0048
vn -0.6993 0.7131 -0.0490
vn 0.6993 0.7131 -0.0490
vn -0.6985 0.7084 -0.1014
vn 0.6985 0.7084 -0.1014
vn -0.6968 0.6988 -0.1617
vn 0.6968 0.6988 -0.1617
vn -0.6937 0.6803 -0.2364
vn 0.6937 0.6803 -0.2364
vn -0.6936 0.6466 -0.3175
vn 0.6936 0.6466 -0.3175
vn -0.6425 0.5122 -0.5700
vn 0.6425 0.5121 -0.5700
vn -0.6659 0.1597 -0.7287
vn 0.6659 0.1597 -0.7287
vn -0.5763 -0.5719 -0.5838
vn -0.5763 -0.5719 0.5838
vn 0.5763 -0.5719 0.5838
vn 0.5763 -0.5719 -0.5838
usemtl None
s 1
f 2//1 3//2 1//3
f 4//4 5//5 3//2
f 6//6 7//7 5//5
f 8//8 9//9 7//7
f 10//10 11//11 9//9
f 12//12 13//13 11//11
f 14//14 15//15 13//13
f 16//16 17//17 15//15
f 18//18 19//19 17//17
f 20//20 21//21 19//19
f 22//22 23//23 21//21
f 24//24 25//25 23//23
f 26//26 27//27 25//25
f 28//28 29//29 27//27
f 30//30 32//31 29//29
f 34//32 2//1 1//3
f 23//23 25//25 32//31
f 8//8 6//6 33//33
f 33//33 32//31 31//34
f 2//1 4//4 3//2
f 4//4 6//6 5//5
f 6//6 8//8 7//7
f 8//8 10//10 9//9
f 10//10 12//12 11//11
f 12//12 14//14 13//13
f 14//14 16//16 15//15
f 16//16 18//18 17//17
f 18//18 20//20 19//19
f 20//20 22//22 21//21
f 22//22 24//24 23//23
f 24//24 26//26 25//25
f 26//26 28//28 27//27
f 28//28 30//30 29//29
f 30//30 31//34 32//31
f 34//32 33//33 2//1
f 29//29 32//31 25//25
f 32//31 34//32 15//15
f 29//29 25//25 27//27
f 34//32 1//3 5//5
f 1//3 3//2 5//5
f 5//5 7//7 34//32
f 7//7 9//9 34//32
f 9//9 11//11 34//32
f 11//11 13//13 34//32
f 13//13 15//15 34//32
f 15//15 17//17 32//31
f 17//17 19//19 32//31
f 19//19 21//21 32//31
f 21//21 23//23 32//31
f 2//1 33//33 6//6
f 33//33 31//34 16//16
f 2//1 6//6 4//4
f 31//34 30//30 26//26
f 30//30 28//28 26//26
f 26//26 24//24 31//34
f 24//24 22//22 31//34
f 22//22 20//20 31//34
f 20//20 18//18 31//34
f 18//18 16//16 31//34
f 16//16 14//14 33//33
f 14//14 12//12 33//33
f 12//12 10//10 33//33
f 10//10 8//8 33//33
f 33//33 34//32 32//31
